<svg width="1440" height="54" viewBox="0 0 1440 54" fill="none" xmlns="http://www.w3.org/2000/svg">
<g clip-path="url(#clip0_2_1573)">
<path d="M47.1129 40.4789V47.2184L6.71842 47.2184V54H2.38369e-06L5.94994e-07 13.4789H6.71842L6.71842 40.4789H47.1129ZM60.5917 13.4789V20.2184H50.4721L47.1129 23.5881V27H60.5917L60.5917 54H53.8313V33.7395H13.4788L13.4788 13.4789L40.3945 13.4789L43.7537 16.8487L47.1129 13.4789L60.5917 13.4789ZM40.3945 23.5881L37.0353 20.2184H20.1972V27H40.3945V23.5881Z" fill="#EAB308"/>
<path d="M47.1549 3.49934e-06V6.73947L2.97497e-07 6.73947L0 5.54042e-06L47.1549 3.49934e-06ZM60.5917 2.91774e-06V6.73947L53.8733 6.73947V3.20854e-06L60.5917 2.91774e-06Z" fill="#EAB308"/>
<path d="M128 33.7395V54L67.4083 54V33.7395H107.803L111.162 37.1092L114.563 33.7395H128ZM107.803 43.8908L104.444 40.4789H74.1687V47.2605H107.803V43.8908ZM121.282 40.4789H117.922L114.563 43.8908L114.563 47.2605H121.282V40.4789Z" fill="#EAB308"/>
<path d="M114.563 5.81607e-07V26.9579L67.4083 26.9579V2.62268e-06L114.563 5.81607e-07ZM107.803 6.73947L74.1687 6.73947V20.2184L107.803 20.2184V6.73947ZM128 0V26.9579H121.282V2.90803e-07L128 0Z" fill="#EAB308"/>
<path d="M175.113 40.4789V47.2184L134.718 47.2184V54L128 54L128 13.4789H134.718V40.4789H175.113ZM188.592 13.4789V20.2184H178.472L175.113 23.5881V27H188.592V54H181.831V33.7395H141.479V13.4789L168.394 13.4789L171.754 16.8487L175.113 13.4789L188.592 13.4789ZM168.394 23.5881L165.035 20.2184H148.197V27H168.394V23.5881Z" fill="#EAB308"/>
<path d="M175.155 3.49934e-06V6.73947L128 6.73947L128 0L175.155 3.49934e-06ZM188.592 2.91774e-06V6.73947L181.873 6.73947V3.20854e-06L188.592 2.91774e-06Z" fill="#EAB308"/>
<path d="M256 33.7395V54L195.408 54V33.7395H235.803L239.162 37.1092L242.563 33.7395H256ZM235.803 43.8908L232.444 40.4789H202.169V47.2605H235.803V43.8908ZM249.282 40.4789H245.922L242.563 43.8908V47.2605H249.282V40.4789Z" fill="#EAB308"/>
<path d="M242.563 5.81607e-07V26.9579L195.408 26.9579V2.62268e-06L242.563 5.81607e-07ZM235.803 6.73947L202.169 6.73947V20.2184L235.803 20.2184V6.73947ZM256 0V26.9579H249.282L249.282 2.90803e-07L256 0Z" fill="#EAB308"/>
<path d="M303.113 40.4789V47.2184L262.718 47.2184V54L256 54V13.4789H262.718V40.4789H303.113ZM316.592 13.4789V20.2184H306.472L303.113 23.5881V27H316.592V54H309.831V33.7395H269.479V13.4789L296.394 13.4789L299.754 16.8487L303.113 13.4789L316.592 13.4789ZM296.394 23.5881L293.035 20.2184H276.197V27H296.394V23.5881Z" fill="#EAB308"/>
<path d="M303.155 3.49934e-06V6.73947L256 6.73947V0L303.155 3.49934e-06ZM316.592 2.91774e-06V6.73947L309.873 6.73947V3.20854e-06L316.592 2.91774e-06Z" fill="#EAB308"/>
<path d="M384 33.7395V54L323.408 54V33.7395H363.803L367.162 37.1092L370.563 33.7395H384ZM363.803 43.8908L360.444 40.4789H330.169V47.2605H363.803V43.8908ZM377.282 40.4789H373.922L370.563 43.8908V47.2605H377.282V40.4789Z" fill="#EAB308"/>
<path d="M370.563 5.81607e-07V26.9579L323.408 26.9579V2.62268e-06L370.563 5.81607e-07ZM363.803 6.73947L330.169 6.73947V20.2184L363.803 20.2184V6.73947ZM384 0V26.9579H377.282V2.90803e-07L384 0Z" fill="#EAB308"/>
<path d="M431.113 40.4789V47.2184L390.718 47.2184V54L384 54V13.4789H390.718V40.4789H431.113ZM444.592 13.4789V20.2184H434.472L431.113 23.5881V27H444.592V54H437.831V33.7395H397.479V13.4789L424.395 13.4789L427.754 16.8487L431.113 13.4789L444.592 13.4789ZM424.395 23.5881L421.035 20.2184H404.197V27H424.395V23.5881Z" fill="#EAB308"/>
<path d="M431.155 3.49934e-06V6.73947L384 6.73947V0L431.155 3.49934e-06ZM444.592 2.91774e-06V6.73947L437.873 6.73947V3.20854e-06L444.592 2.91774e-06Z" fill="#EAB308"/>
<path d="M512 33.7395V54L451.408 54V33.7395H491.803L495.162 37.1092L498.563 33.7395H512ZM491.803 43.8908L488.444 40.4789H458.169V47.2605H491.803V43.8908ZM505.282 40.4789H501.922L498.563 43.8908V47.2605H505.282V40.4789Z" fill="#EAB308"/>
<path d="M498.563 5.81607e-07V26.9579L451.408 26.9579V2.62268e-06L498.563 5.81607e-07ZM491.803 6.73947L458.169 6.73947V20.2184L491.803 20.2184V6.73947ZM512 0V26.9579H505.282V2.90803e-07L512 0Z" fill="#EAB308"/>
<path d="M559.113 40.4789V47.2184L518.718 47.2184V54L512 54V13.4789H518.718V40.4789H559.113ZM572.592 13.4789V20.2184H562.472L559.113 23.5881V27H572.592V54H565.831V33.7395H525.479V13.4789L552.395 13.4789L555.754 16.8487L559.113 13.4789L572.592 13.4789ZM552.395 23.5881L549.035 20.2184H532.197V27H552.395V23.5881Z" fill="#EAB308"/>
<path d="M559.155 3.49934e-06V6.73947L512 6.73947V0L559.155 3.49934e-06ZM572.592 2.91774e-06V6.73947L565.873 6.73947V3.20854e-06L572.592 2.91774e-06Z" fill="#EAB308"/>
<path d="M640 33.7395V54L579.408 54V33.7395H619.803L623.162 37.1092L626.563 33.7395H640ZM619.803 43.8908L616.444 40.4789H586.169V47.2605H619.803V43.8908ZM633.282 40.4789H629.922L626.563 43.8908V47.2605H633.282V40.4789Z" fill="#EAB308"/>
<path d="M626.563 5.81607e-07V26.9579L579.408 26.9579V2.62268e-06L626.563 5.81607e-07ZM619.803 6.73947L586.169 6.73947V20.2184L619.803 20.2184V6.73947ZM640 0V26.9579H633.282V2.90803e-07L640 0Z" fill="#EAB308"/>
<path d="M687.113 40.4789V47.2184L646.718 47.2184V54L640 54V13.4789H646.718L646.718 40.4789H687.113ZM700.592 13.4789V20.2184H690.472L687.113 23.5881V27H700.592V54H693.831V33.7395H653.479V13.4789L680.394 13.4789L683.754 16.8487L687.113 13.4789L700.592 13.4789ZM680.394 23.5881L677.035 20.2184H660.197V27H680.394V23.5881Z" fill="#EAB308"/>
<path d="M687.155 3.49934e-06V6.73947L640 6.73947V0L687.155 3.49934e-06ZM700.592 2.91774e-06V6.73947L693.873 6.73947V3.20854e-06L700.592 2.91774e-06Z" fill="#EAB308"/>
<path d="M768 33.7395V54L707.408 54V33.7395H747.803L751.162 37.1092L754.563 33.7395H768ZM747.803 43.8908L744.444 40.4789H714.169V47.2605H747.803V43.8908ZM761.282 40.4789H757.922L754.563 43.8908V47.2605H761.282V40.4789Z" fill="#EAB308"/>
<path d="M754.563 5.81607e-07V26.9579L707.408 26.9579V2.62268e-06L754.563 5.81607e-07ZM747.803 6.73947L714.169 6.73947V20.2184L747.803 20.2184V6.73947ZM768 0V26.9579H761.282V2.90803e-07L768 0Z" fill="#EAB308"/>
<path d="M815.113 40.4789V47.2184L774.718 47.2184V54L768 54V13.4789H774.718L774.718 40.4789H815.113ZM828.592 13.4789V20.2184H818.472L815.113 23.5881V27H828.592V54H821.831V33.7395H781.479V13.4789L808.394 13.4789L811.754 16.8487L815.113 13.4789L828.592 13.4789ZM808.394 23.5881L805.035 20.2184H788.197V27H808.394V23.5881Z" fill="#EAB308"/>
<path d="M815.155 3.49934e-06V6.73947L768 6.73947V0L815.155 3.49934e-06ZM828.592 2.91774e-06V6.73947L821.873 6.73947V3.20854e-06L828.592 2.91774e-06Z" fill="#EAB308"/>
<path d="M896 33.7395V54L835.408 54V33.7395H875.803L879.162 37.1092L882.563 33.7395H896ZM875.803 43.8908L872.444 40.4789H842.169V47.2605H875.803V43.8908ZM889.282 40.4789H885.922L882.563 43.8908V47.2605H889.282V40.4789Z" fill="#EAB308"/>
<path d="M882.563 5.81607e-07V26.9579L835.408 26.9579V2.62268e-06L882.563 5.81607e-07ZM875.803 6.73947L842.169 6.73947V20.2184L875.803 20.2184V6.73947ZM896 0V26.9579H889.282V2.90803e-07L896 0Z" fill="#EAB308"/>
<path d="M937.113 40.4789V47.2184L896.718 47.2184V54H890L890 13.4789H896.718L896.718 40.4789H937.113ZM950.592 13.4789V20.2184H940.472L937.113 23.5881V27H950.592L950.592 54H943.831V33.7395H903.479L903.479 13.4789L930.394 13.4789L933.754 16.8487L937.113 13.4789L950.592 13.4789ZM930.394 23.5881L927.035 20.2184H910.197V27H930.394V23.5881Z" fill="#EAB308"/>
<path d="M937.155 3.49934e-06V6.73947L890 6.73947L890 5.54042e-06L937.155 3.49934e-06ZM950.592 2.91774e-06V6.73947L943.873 6.73947V3.20854e-06L950.592 2.91774e-06Z" fill="#EAB308"/>
<path d="M1018 33.7395V54L957.408 54V33.7395H997.803L1001.16 37.1092L1004.56 33.7395H1018ZM997.803 43.8908L994.444 40.4789H964.169V47.2605H997.803V43.8908ZM1011.28 40.4789H1007.92L1004.56 43.8908L1004.56 47.2605H1011.28V40.4789Z" fill="#EAB308"/>
<path d="M1004.56 5.81607e-07V26.9579L957.408 26.9579V2.62268e-06L1004.56 5.81607e-07ZM997.803 6.73947L964.169 6.73947V20.2184L997.803 20.2184V6.73947ZM1018 0V26.9579H1011.28V2.90803e-07L1018 0Z" fill="#EAB308"/>
<path d="M1065.11 40.4789V47.2184L1024.72 47.2184V54L1018 54L1018 13.4789H1024.72V40.4789H1065.11ZM1078.59 13.4789V20.2184H1068.47L1065.11 23.5881V27H1078.59V54H1071.83V33.7395H1031.48V13.4789L1058.39 13.4789L1061.75 16.8487L1065.11 13.4789L1078.59 13.4789ZM1058.39 23.5881L1055.04 20.2184H1038.2V27H1058.39V23.5881Z" fill="#EAB308"/>
<path d="M1065.15 3.49934e-06V6.73947L1018 6.73947L1018 0L1065.15 3.49934e-06ZM1078.59 2.91774e-06V6.73947L1071.87 6.73947V3.20854e-06L1078.59 2.91774e-06Z" fill="#EAB308"/>
<path d="M1146 33.7395V54L1085.41 54V33.7395H1125.8L1129.16 37.1092L1132.56 33.7395H1146ZM1125.8 43.8908L1122.44 40.4789H1092.17V47.2605H1125.8V43.8908ZM1139.28 40.4789H1135.92L1132.56 43.8908V47.2605H1139.28V40.4789Z" fill="#EAB308"/>
<path d="M1132.56 5.81607e-07V26.9579L1085.41 26.9579V2.62268e-06L1132.56 5.81607e-07ZM1125.8 6.73947L1092.17 6.73947V20.2184L1125.8 20.2184V6.73947ZM1146 0V26.9579H1139.28L1139.28 2.90803e-07L1146 0Z" fill="#EAB308"/>
<path d="M1193.11 40.4789V47.2184L1152.72 47.2184V54L1146 54V13.4789H1152.72V40.4789H1193.11ZM1206.59 13.4789V20.2184H1196.47L1193.11 23.5881V27H1206.59V54H1199.83V33.7395H1159.48V13.4789L1186.39 13.4789L1189.75 16.8487L1193.11 13.4789L1206.59 13.4789ZM1186.39 23.5881L1183.04 20.2184H1166.2V27H1186.39V23.5881Z" fill="#EAB308"/>
<path d="M1193.15 3.49934e-06V6.73947L1146 6.73947V0L1193.15 3.49934e-06ZM1206.59 2.91774e-06V6.73947L1199.87 6.73947V3.20854e-06L1206.59 2.91774e-06Z" fill="#EAB308"/>
<path d="M1274 33.7395V54L1213.41 54V33.7395H1253.8L1257.16 37.1092L1260.56 33.7395H1274ZM1253.8 43.8908L1250.44 40.4789H1220.17V47.2605H1253.8V43.8908ZM1267.28 40.4789H1263.92L1260.56 43.8908V47.2605H1267.28V40.4789Z" fill="#EAB308"/>
<path d="M1260.56 5.81607e-07V26.9579L1213.41 26.9579V2.62268e-06L1260.56 5.81607e-07ZM1253.8 6.73947L1220.17 6.73947V20.2184L1253.8 20.2184V6.73947ZM1274 0V26.9579H1267.28V2.90803e-07L1274 0Z" fill="#EAB308"/>
<path d="M1321.11 40.4789V47.2184L1280.72 47.2184V54L1274 54V13.4789H1280.72V40.4789H1321.11ZM1334.59 13.4789V20.2184H1324.47L1321.11 23.5881V27H1334.59V54H1327.83V33.7395H1287.48V13.4789L1314.39 13.4789L1317.75 16.8487L1321.11 13.4789L1334.59 13.4789ZM1314.39 23.5881L1311.04 20.2184H1294.2V27H1314.39V23.5881Z" fill="#EAB308"/>
<path d="M1321.15 3.49934e-06V6.73947L1274 6.73947V0L1321.15 3.49934e-06ZM1334.59 2.91774e-06V6.73947L1327.87 6.73947V3.20854e-06L1334.59 2.91774e-06Z" fill="#EAB308"/>
<path d="M1402 33.7395V54L1341.41 54V33.7395H1381.8L1385.16 37.1092L1388.56 33.7395H1402ZM1381.8 43.8908L1378.44 40.4789H1348.17V47.2605H1381.8V43.8908ZM1395.28 40.4789H1391.92L1388.56 43.8908V47.2605H1395.28V40.4789Z" fill="#EAB308"/>
<path d="M1388.56 5.81607e-07V26.9579L1341.41 26.9579V2.62268e-06L1388.56 5.81607e-07ZM1381.8 6.73947L1348.17 6.73947V20.2184L1381.8 20.2184V6.73947ZM1402 0V26.9579H1395.28V2.90803e-07L1402 0Z" fill="#EAB308"/>
<path d="M1449.11 40.4789V47.2184L1408.72 47.2184V54L1402 54V13.4789H1408.72V40.4789H1449.11ZM1462.59 13.4789V20.2184H1452.47L1449.11 23.5881V27H1462.59V54H1455.83V33.7395H1415.48V13.4789L1442.39 13.4789L1445.75 16.8487L1449.11 13.4789L1462.59 13.4789ZM1442.39 23.5881L1439.04 20.2184H1422.2V27H1442.39V23.5881Z" fill="#EAB308"/>
<path d="M1449.15 3.49934e-06V6.73947L1402 6.73947V0L1449.15 3.49934e-06ZM1462.59 2.91774e-06V6.73947L1455.87 6.73947V3.20854e-06L1462.59 2.91774e-06Z" fill="#EAB308"/>
<path d="M1530 33.7395V54L1469.41 54V33.7395H1509.8L1513.16 37.1092L1516.56 33.7395H1530ZM1509.8 43.8908L1506.44 40.4789H1476.17V47.2605H1509.8V43.8908ZM1523.28 40.4789H1519.92L1516.56 43.8908V47.2605H1523.28V40.4789Z" fill="#EAB308"/>
<path d="M1516.56 5.81607e-07V26.9579L1469.41 26.9579V2.62268e-06L1516.56 5.81607e-07ZM1509.8 6.73947L1476.17 6.73947V20.2184L1509.8 20.2184V6.73947ZM1530 0V26.9579H1523.28V2.90803e-07L1530 0Z" fill="#EAB308"/>
<path d="M1577.11 40.4789V47.2184L1536.72 47.2184V54L1530 54V13.4789H1536.72L1536.72 40.4789H1577.11ZM1590.59 13.4789V20.2184H1580.47L1577.11 23.5881V27H1590.59V54H1583.83V33.7395H1543.48V13.4789L1570.39 13.4789L1573.75 16.8487L1577.11 13.4789L1590.59 13.4789ZM1570.39 23.5881L1567.04 20.2184H1550.2V27H1570.39V23.5881Z" fill="#EAB308"/>
<path d="M1577.15 3.49934e-06V6.73947L1530 6.73947V0L1577.15 3.49934e-06ZM1590.59 2.91774e-06V6.73947L1583.87 6.73947V3.20854e-06L1590.59 2.91774e-06Z" fill="#EAB308"/>
<path d="M1658 33.7395V54L1597.41 54V33.7395H1637.8L1641.16 37.1092L1644.56 33.7395H1658ZM1637.8 43.8908L1634.44 40.4789H1604.17V47.2605H1637.8V43.8908ZM1651.28 40.4789H1647.92L1644.56 43.8908V47.2605H1651.28V40.4789Z" fill="#EAB308"/>
<path d="M1644.56 5.81607e-07V26.9579L1597.41 26.9579V2.62268e-06L1644.56 5.81607e-07ZM1637.8 6.73947L1604.17 6.73947V20.2184L1637.8 20.2184V6.73947ZM1658 0V26.9579H1651.28V2.90803e-07L1658 0Z" fill="#EAB308"/>
<path d="M1705.11 40.4789V47.2184L1664.72 47.2184V54L1658 54V13.4789H1664.72L1664.72 40.4789H1705.11ZM1718.59 13.4789V20.2184H1708.47L1705.11 23.5881V27H1718.59V54H1711.83V33.7395H1671.48V13.4789L1698.39 13.4789L1701.75 16.8487L1705.11 13.4789L1718.59 13.4789ZM1698.39 23.5881L1695.04 20.2184H1678.2V27H1698.39V23.5881Z" fill="#EAB308"/>
<path d="M1705.15 3.49934e-06V6.73947L1658 6.73947V0L1705.15 3.49934e-06ZM1718.59 2.91774e-06V6.73947L1711.87 6.73947V3.20854e-06L1718.59 2.91774e-06Z" fill="#EAB308"/>
<path d="M1786 33.7395V54L1725.41 54V33.7395H1765.8L1769.16 37.1092L1772.56 33.7395H1786ZM1765.8 43.8908L1762.44 40.4789H1732.17V47.2605H1765.8V43.8908ZM1779.28 40.4789H1775.92L1772.56 43.8908V47.2605H1779.28V40.4789Z" fill="#EAB308"/>
<path d="M1772.56 5.81607e-07V26.9579L1725.41 26.9579V2.62268e-06L1772.56 5.81607e-07ZM1765.8 6.73947L1732.17 6.73947V20.2184L1765.8 20.2184V6.73947ZM1786 0V26.9579H1779.28V2.90803e-07L1786 0Z" fill="#EAB308"/>
</g>
<defs>
<clipPath id="clip0_2_1573">
<rect width="1440" height="54" fill="white"/>
</clipPath>
</defs>
</svg>
