<svg width="1792" height="54" viewBox="0 0 1792 54" fill="none" xmlns="http://www.w3.org/2000/svg">
<path d="M47.1129 40.4789V47.2184L6.71842 47.2184V54H2.38369e-06L5.94994e-07 13.4789H6.71842L6.71842 40.4789H47.1129ZM60.5917 13.4789V20.2184H50.4721L47.1129 23.5881V27H60.5917L60.5917 54H53.8313V33.7395L13.4788 33.7395L13.4788 13.4789L40.3945 13.4789L43.7537 16.8487L47.1129 13.4789L60.5917 13.4789ZM40.3945 23.5881L37.0353 20.2184H20.1972V27H40.3945V23.5881Z" fill="#292929"/>
<path d="M47.1549 3.49934e-06V6.73947L2.97497e-07 6.73947L0 5.54042e-06L47.1549 3.49934e-06ZM60.5917 2.91774e-06V6.73947L53.8733 6.73947V3.20854e-06L60.5917 2.91774e-06Z" fill="#292929"/>
<path d="M128 33.7395V54L67.4083 54V33.7395H107.803L111.162 37.1092L114.563 33.7395H128ZM107.803 43.8908L104.444 40.4789H74.1687V47.2605H107.803V43.8908ZM121.282 40.4789H117.922L114.563 43.8908L114.563 47.2605H121.282V40.4789Z" fill="#292929"/>
<path d="M114.563 5.81607e-07V26.9579L67.4083 26.9579V2.62268e-06L114.563 5.81607e-07ZM107.803 6.73947L74.1687 6.73947V20.2184L107.803 20.2184V6.73947ZM128 0V26.9579H121.282V2.90803e-07L128 0Z" fill="#292929"/>
<path d="M175.113 40.4789V47.2184L134.718 47.2184V54L128 54L128 13.4789H134.718V40.4789H175.113ZM188.592 13.4789V20.2184H178.472L175.113 23.5881V27H188.592V54H181.831V33.7395L141.479 33.7395V13.4789L168.394 13.4789L171.754 16.8487L175.113 13.4789L188.592 13.4789ZM168.394 23.5881L165.035 20.2184H148.197V27H168.394V23.5881Z" fill="#292929"/>
<path d="M175.155 3.49934e-06V6.73947L128 6.73947L128 0L175.155 3.49934e-06ZM188.592 2.91774e-06V6.73947L181.873 6.73947V3.20854e-06L188.592 2.91774e-06Z" fill="#292929"/>
<path d="M256 33.7395V54L195.408 54V33.7395H235.803L239.162 37.1092L242.563 33.7395H256ZM235.803 43.8908L232.444 40.4789H202.169V47.2605H235.803V43.8908ZM249.282 40.4789H245.922L242.563 43.8908V47.2605H249.282V40.4789Z" fill="#292929"/>
<path d="M242.563 5.81607e-07V26.9579L195.408 26.9579V2.62268e-06L242.563 5.81607e-07ZM235.803 6.73947L202.169 6.73947V20.2184L235.803 20.2184V6.73947ZM256 0V26.9579H249.282L249.282 2.90803e-07L256 0Z" fill="#292929"/>
<path d="M303.113 40.4789V47.2184L262.718 47.2184V54L256 54V13.4789H262.718V40.4789H303.113ZM316.592 13.4789V20.2184H306.472L303.113 23.5881V27H316.592V54H309.831V33.7395L269.479 33.7395V13.4789L296.394 13.4789L299.754 16.8487L303.113 13.4789L316.592 13.4789ZM296.394 23.5881L293.035 20.2184H276.197V27H296.394V23.5881Z" fill="#292929"/>
<path d="M303.155 3.49934e-06V6.73947L256 6.73947V0L303.155 3.49934e-06ZM316.592 2.91774e-06V6.73947L309.873 6.73947V3.20854e-06L316.592 2.91774e-06Z" fill="#292929"/>
<path d="M384 33.7395V54L323.408 54V33.7395H363.803L367.162 37.1092L370.563 33.7395H384ZM363.803 43.8908L360.444 40.4789H330.169V47.2605H363.803V43.8908ZM377.282 40.4789H373.922L370.563 43.8908V47.2605H377.282V40.4789Z" fill="#292929"/>
<path d="M370.563 5.81607e-07V26.9579L323.408 26.9579V2.62268e-06L370.563 5.81607e-07ZM363.803 6.73947L330.169 6.73947V20.2184L363.803 20.2184V6.73947ZM384 0V26.9579H377.282V2.90803e-07L384 0Z" fill="#292929"/>
<path d="M431.113 40.4789V47.2184L390.718 47.2184V54L384 54V13.4789H390.718V40.4789H431.113ZM444.592 13.4789V20.2184H434.472L431.113 23.5881V27H444.592V54H437.831V33.7395L397.479 33.7395V13.4789L424.395 13.4789L427.754 16.8487L431.113 13.4789L444.592 13.4789ZM424.395 23.5881L421.035 20.2184H404.197V27H424.395V23.5881Z" fill="#292929"/>
<path d="M431.155 3.49934e-06V6.73947L384 6.73947V0L431.155 3.49934e-06ZM444.592 2.91774e-06V6.73947L437.873 6.73947V3.20854e-06L444.592 2.91774e-06Z" fill="#292929"/>
<path d="M512 33.7395V54L451.408 54V33.7395H491.803L495.162 37.1092L498.563 33.7395H512ZM491.803 43.8908L488.444 40.4789H458.169V47.2605H491.803V43.8908ZM505.282 40.4789H501.922L498.563 43.8908V47.2605H505.282V40.4789Z" fill="#292929"/>
<path d="M498.563 5.81607e-07V26.9579L451.408 26.9579V2.62268e-06L498.563 5.81607e-07ZM491.803 6.73947L458.169 6.73947V20.2184L491.803 20.2184V6.73947ZM512 0V26.9579H505.282V2.90803e-07L512 0Z" fill="#292929"/>
<path d="M559.113 40.4789V47.2184L518.718 47.2184V54L512 54V13.4789H518.718V40.4789H559.113ZM572.592 13.4789V20.2184H562.472L559.113 23.5881V27H572.592V54H565.831V33.7395L525.479 33.7395V13.4789L552.395 13.4789L555.754 16.8487L559.113 13.4789L572.592 13.4789ZM552.395 23.5881L549.035 20.2184H532.197V27H552.395V23.5881Z" fill="#292929"/>
<path d="M559.155 3.49934e-06V6.73947L512 6.73947V0L559.155 3.49934e-06ZM572.592 2.91774e-06V6.73947L565.873 6.73947V3.20854e-06L572.592 2.91774e-06Z" fill="#292929"/>
<path d="M640 33.7395V54L579.408 54V33.7395H619.803L623.162 37.1092L626.563 33.7395H640ZM619.803 43.8908L616.444 40.4789H586.169V47.2605H619.803V43.8908ZM633.282 40.4789H629.922L626.563 43.8908V47.2605H633.282V40.4789Z" fill="#292929"/>
<path d="M626.563 5.81607e-07V26.9579L579.408 26.9579V2.62268e-06L626.563 5.81607e-07ZM619.803 6.73947L586.169 6.73947V20.2184L619.803 20.2184V6.73947ZM640 0V26.9579H633.282V2.90803e-07L640 0Z" fill="#292929"/>
<path d="M687.113 40.4789V47.2184L646.718 47.2184V54L640 54V13.4789H646.718L646.718 40.4789H687.113ZM700.592 13.4789V20.2184H690.472L687.113 23.5881V27H700.592V54H693.831V33.7395L653.479 33.7395V13.4789L680.394 13.4789L683.754 16.8487L687.113 13.4789L700.592 13.4789ZM680.394 23.5881L677.035 20.2184H660.197V27H680.394V23.5881Z" fill="#292929"/>
<path d="M687.155 3.49934e-06V6.73947L640 6.73947V0L687.155 3.49934e-06ZM700.592 2.91774e-06V6.73947L693.873 6.73947V3.20854e-06L700.592 2.91774e-06Z" fill="#292929"/>
<path d="M768 33.7395V54L707.408 54V33.7395H747.803L751.162 37.1092L754.563 33.7395H768ZM747.803 43.8908L744.444 40.4789H714.169V47.2605H747.803V43.8908ZM761.282 40.4789H757.922L754.563 43.8908V47.2605H761.282V40.4789Z" fill="#292929"/>
<path d="M754.563 5.81607e-07V26.9579L707.408 26.9579V2.62268e-06L754.563 5.81607e-07ZM747.803 6.73947L714.169 6.73947V20.2184L747.803 20.2184V6.73947ZM768 0V26.9579H761.282V2.90803e-07L768 0Z" fill="#292929"/>
<path d="M815.113 40.4789V47.2184L774.718 47.2184V54L768 54V13.4789H774.718L774.718 40.4789H815.113ZM828.592 13.4789V20.2184H818.472L815.113 23.5881V27H828.592V54H821.831V33.7395L781.479 33.7395V13.4789L808.394 13.4789L811.754 16.8487L815.113 13.4789L828.592 13.4789ZM808.394 23.5881L805.035 20.2184H788.197V27H808.394V23.5881Z" fill="#292929"/>
<path d="M815.155 3.49934e-06V6.73947L768 6.73947V0L815.155 3.49934e-06ZM828.592 2.91774e-06V6.73947L821.873 6.73947V3.20854e-06L828.592 2.91774e-06Z" fill="#292929"/>
<path d="M896 33.7395V54L835.408 54V33.7395H875.803L879.162 37.1092L882.563 33.7395H896ZM875.803 43.8908L872.444 40.4789H842.169V47.2605H875.803V43.8908ZM889.282 40.4789H885.922L882.563 43.8908V47.2605H889.282V40.4789Z" fill="#292929"/>
<path d="M882.563 5.81607e-07V26.9579L835.408 26.9579V2.62268e-06L882.563 5.81607e-07ZM875.803 6.73947L842.169 6.73947V20.2184L875.803 20.2184V6.73947ZM896 0V26.9579H889.282V2.90803e-07L896 0Z" fill="#292929"/>
<path d="M943.113 40.4789V47.2184L902.718 47.2184V54H896L896 13.4789H902.718L902.718 40.4789H943.113ZM956.592 13.4789V20.2184H946.472L943.113 23.5881V27H956.592L956.592 54H949.831V33.7395L909.479 33.7395L909.479 13.4789L936.394 13.4789L939.754 16.8487L943.113 13.4789L956.592 13.4789ZM936.394 23.5881L933.035 20.2184H916.197V27H936.394V23.5881Z" fill="#292929"/>
<path d="M943.155 3.49934e-06V6.73947L896 6.73947L896 5.54042e-06L943.155 3.49934e-06ZM956.592 2.91774e-06V6.73947L949.873 6.73947V3.20854e-06L956.592 2.91774e-06Z" fill="#292929"/>
<path d="M1024 33.7395V54L963.408 54V33.7395H1003.8L1007.16 37.1092L1010.56 33.7395H1024ZM1003.8 43.8908L1000.44 40.4789H970.169V47.2605H1003.8V43.8908ZM1017.28 40.4789H1013.92L1010.56 43.8908L1010.56 47.2605H1017.28V40.4789Z" fill="#292929"/>
<path d="M1010.56 5.81607e-07V26.9579L963.408 26.9579V2.62268e-06L1010.56 5.81607e-07ZM1003.8 6.73947L970.169 6.73947V20.2184L1003.8 20.2184V6.73947ZM1024 0V26.9579H1017.28V2.90803e-07L1024 0Z" fill="#292929"/>
<path d="M1071.11 40.4789V47.2184L1030.72 47.2184V54L1024 54L1024 13.4789H1030.72V40.4789H1071.11ZM1084.59 13.4789V20.2184H1074.47L1071.11 23.5881V27H1084.59V54H1077.83V33.7395L1037.48 33.7395V13.4789L1064.39 13.4789L1067.75 16.8487L1071.11 13.4789L1084.59 13.4789ZM1064.39 23.5881L1061.04 20.2184H1044.2V27H1064.39V23.5881Z" fill="#292929"/>
<path d="M1071.15 3.49934e-06V6.73947L1024 6.73947L1024 0L1071.15 3.49934e-06ZM1084.59 2.91774e-06V6.73947L1077.87 6.73947V3.20854e-06L1084.59 2.91774e-06Z" fill="#292929"/>
<path d="M1152 33.7395V54L1091.41 54V33.7395H1131.8L1135.16 37.1092L1138.56 33.7395H1152ZM1131.8 43.8908L1128.44 40.4789H1098.17V47.2605H1131.8V43.8908ZM1145.28 40.4789H1141.92L1138.56 43.8908V47.2605H1145.28V40.4789Z" fill="#292929"/>
<path d="M1138.56 5.81607e-07V26.9579L1091.41 26.9579V2.62268e-06L1138.56 5.81607e-07ZM1131.8 6.73947L1098.17 6.73947V20.2184L1131.8 20.2184V6.73947ZM1152 0V26.9579H1145.28L1145.28 2.90803e-07L1152 0Z" fill="#292929"/>
<path d="M1199.11 40.4789V47.2184L1158.72 47.2184V54L1152 54V13.4789H1158.72V40.4789H1199.11ZM1212.59 13.4789V20.2184H1202.47L1199.11 23.5881V27H1212.59V54H1205.83V33.7395L1165.48 33.7395V13.4789L1192.39 13.4789L1195.75 16.8487L1199.11 13.4789L1212.59 13.4789ZM1192.39 23.5881L1189.04 20.2184H1172.2V27H1192.39V23.5881Z" fill="#292929"/>
<path d="M1199.15 3.49934e-06V6.73947L1152 6.73947V0L1199.15 3.49934e-06ZM1212.59 2.91774e-06V6.73947L1205.87 6.73947V3.20854e-06L1212.59 2.91774e-06Z" fill="#292929"/>
<path d="M1280 33.7395V54L1219.41 54V33.7395H1259.8L1263.16 37.1092L1266.56 33.7395H1280ZM1259.8 43.8908L1256.44 40.4789H1226.17V47.2605H1259.8V43.8908ZM1273.28 40.4789H1269.92L1266.56 43.8908V47.2605H1273.28V40.4789Z" fill="#292929"/>
<path d="M1266.56 5.81607e-07V26.9579L1219.41 26.9579V2.62268e-06L1266.56 5.81607e-07ZM1259.8 6.73947L1226.17 6.73947V20.2184L1259.8 20.2184V6.73947ZM1280 0V26.9579H1273.28V2.90803e-07L1280 0Z" fill="#292929"/>
<path d="M1327.11 40.4789V47.2184L1286.72 47.2184V54L1280 54V13.4789H1286.72V40.4789H1327.11ZM1340.59 13.4789V20.2184H1330.47L1327.11 23.5881V27H1340.59V54H1333.83V33.7395L1293.48 33.7395V13.4789L1320.39 13.4789L1323.75 16.8487L1327.11 13.4789L1340.59 13.4789ZM1320.39 23.5881L1317.04 20.2184H1300.2V27H1320.39V23.5881Z" fill="#292929"/>
<path d="M1327.15 3.49934e-06V6.73947L1280 6.73947V0L1327.15 3.49934e-06ZM1340.59 2.91774e-06V6.73947L1333.87 6.73947V3.20854e-06L1340.59 2.91774e-06Z" fill="#292929"/>
<path d="M1408 33.7395V54L1347.41 54V33.7395H1387.8L1391.16 37.1092L1394.56 33.7395H1408ZM1387.8 43.8908L1384.44 40.4789H1354.17V47.2605H1387.8V43.8908ZM1401.28 40.4789H1397.92L1394.56 43.8908V47.2605H1401.28V40.4789Z" fill="#292929"/>
<path d="M1394.56 5.81607e-07V26.9579L1347.41 26.9579V2.62268e-06L1394.56 5.81607e-07ZM1387.8 6.73947L1354.17 6.73947V20.2184L1387.8 20.2184V6.73947ZM1408 0V26.9579H1401.28V2.90803e-07L1408 0Z" fill="#292929"/>
<path d="M1455.11 40.4789V47.2184L1414.72 47.2184V54L1408 54V13.4789H1414.72V40.4789H1455.11ZM1468.59 13.4789V20.2184H1458.47L1455.11 23.5881V27H1468.59V54H1461.83V33.7395L1421.48 33.7395V13.4789L1448.39 13.4789L1451.75 16.8487L1455.11 13.4789L1468.59 13.4789ZM1448.39 23.5881L1445.04 20.2184H1428.2V27H1448.39V23.5881Z" fill="#292929"/>
<path d="M1455.15 3.49934e-06V6.73947L1408 6.73947V0L1455.15 3.49934e-06ZM1468.59 2.91774e-06V6.73947L1461.87 6.73947V3.20854e-06L1468.59 2.91774e-06Z" fill="#292929"/>
<path d="M1536 33.7395V54L1475.41 54V33.7395H1515.8L1519.16 37.1092L1522.56 33.7395H1536ZM1515.8 43.8908L1512.44 40.4789H1482.17V47.2605H1515.8V43.8908ZM1529.28 40.4789H1525.92L1522.56 43.8908V47.2605H1529.28V40.4789Z" fill="#292929"/>
<path d="M1522.56 5.81607e-07V26.9579L1475.41 26.9579V2.62268e-06L1522.56 5.81607e-07ZM1515.8 6.73947L1482.17 6.73947V20.2184L1515.8 20.2184V6.73947ZM1536 0V26.9579H1529.28V2.90803e-07L1536 0Z" fill="#292929"/>
<path d="M1583.11 40.4789V47.2184L1542.72 47.2184V54L1536 54V13.4789H1542.72L1542.72 40.4789H1583.11ZM1596.59 13.4789V20.2184H1586.47L1583.11 23.5881V27H1596.59V54H1589.83V33.7395L1549.48 33.7395V13.4789L1576.39 13.4789L1579.75 16.8487L1583.11 13.4789L1596.59 13.4789ZM1576.39 23.5881L1573.04 20.2184H1556.2V27H1576.39V23.5881Z" fill="#292929"/>
<path d="M1583.15 3.49934e-06V6.73947L1536 6.73947V0L1583.15 3.49934e-06ZM1596.59 2.91774e-06V6.73947L1589.87 6.73947V3.20854e-06L1596.59 2.91774e-06Z" fill="#292929"/>
<path d="M1664 33.7395V54L1603.41 54V33.7395H1643.8L1647.16 37.1092L1650.56 33.7395H1664ZM1643.8 43.8908L1640.44 40.4789H1610.17V47.2605H1643.8V43.8908ZM1657.28 40.4789H1653.92L1650.56 43.8908V47.2605H1657.28V40.4789Z" fill="#292929"/>
<path d="M1650.56 5.81607e-07V26.9579L1603.41 26.9579V2.62268e-06L1650.56 5.81607e-07ZM1643.8 6.73947L1610.17 6.73947V20.2184L1643.8 20.2184V6.73947ZM1664 0V26.9579H1657.28V2.90803e-07L1664 0Z" fill="#292929"/>
<path d="M1711.11 40.4789V47.2184L1670.72 47.2184V54L1664 54V13.4789H1670.72L1670.72 40.4789H1711.11ZM1724.59 13.4789V20.2184H1714.47L1711.11 23.5881V27H1724.59V54H1717.83V33.7395L1677.48 33.7395V13.4789L1704.39 13.4789L1707.75 16.8487L1711.11 13.4789L1724.59 13.4789ZM1704.39 23.5881L1701.04 20.2184H1684.2V27H1704.39V23.5881Z" fill="#292929"/>
<path d="M1711.15 3.49934e-06V6.73947L1664 6.73947V0L1711.15 3.49934e-06ZM1724.59 2.91774e-06V6.73947L1717.87 6.73947V3.20854e-06L1724.59 2.91774e-06Z" fill="#292929"/>
<path d="M1792 33.7395V54L1731.41 54V33.7395H1771.8L1775.16 37.1092L1778.56 33.7395H1792ZM1771.8 43.8908L1768.44 40.4789H1738.17V47.2605H1771.8V43.8908ZM1785.28 40.4789H1781.92L1778.56 43.8908V47.2605H1785.28V40.4789Z" fill="#292929"/>
<path d="M1778.56 5.81607e-07V26.9579L1731.41 26.9579V2.62268e-06L1778.56 5.81607e-07ZM1771.8 6.73947L1738.17 6.73947V20.2184L1771.8 20.2184V6.73947ZM1792 0V26.9579H1785.28V2.90803e-07L1792 0Z" fill="#292929"/>
</svg>
