<svg width="34" height="34" viewBox="0 0 34 34" fill="none" xmlns="http://www.w3.org/2000/svg">
<path d="M4.87619 19.4095C6.00657 20.2839 7.70487 20.7946 9.64286 20.7714C11.5808 20.7946 13.2791 20.2839 14.4095 19.4095C15.5399 18.5352 17.2382 18.0245 19.1762 18.0476C21.1142 18.0245 22.8125 18.5352 23.9429 19.4095" stroke="#EAB308" stroke-width="2.72381" stroke-linecap="round" stroke-linejoin="round"/>
<path d="M11.6857 4.42853C11.2547 4.73791 10.9054 5.14758 10.6682 5.62213C10.4309 6.09669 10.3127 6.62188 10.3238 7.15234C10.3127 7.68279 10.4309 8.20798 10.6682 8.68254C10.9054 9.1571 11.2547 9.56676 11.6857 9.87615" stroke="#EAB308" stroke-width="2.72381" stroke-linecap="round" stroke-linejoin="round"/>
<path d="M17.1333 4.42853C16.7023 4.73791 16.3531 5.14758 16.1158 5.62213C15.8785 6.09669 15.7603 6.62188 15.7714 7.15234C15.7603 7.68279 15.8785 8.20798 16.1158 8.68254C16.3531 9.1571 16.7023 9.56676 17.1333 9.87615" stroke="#EAB308" stroke-width="2.72381" stroke-linecap="round" stroke-linejoin="round"/>
<path d="M4.87619 13.9619H23.9429V20.7714C23.9429 22.9386 23.0819 25.017 21.5495 26.5495C20.0171 28.0819 17.9386 28.9428 15.7714 28.9428H13.0476C10.8804 28.9428 8.80199 28.0819 7.26955 26.5495C5.73711 25.017 4.87619 22.9386 4.87619 20.7714V13.9619Z" stroke="#EAB308" stroke-width="2.72381" stroke-linecap="round" stroke-linejoin="round"/>
<path d="M23.5969 23.122C24.2051 23.4013 24.8726 23.5268 25.5407 23.4876C26.2089 23.4484 26.8571 23.2457 27.4285 22.8973C27.9999 22.5489 28.477 22.0654 28.8178 21.4895C29.1586 20.9135 29.3527 20.2626 29.383 19.5941C29.4134 18.9255 29.279 18.2597 28.9917 17.6552C28.7045 17.0508 28.2731 16.5261 27.7356 16.1274C27.1981 15.7287 26.5709 15.4681 25.9091 15.3686C25.2473 15.2691 24.5711 15.3337 23.9401 15.5567" stroke="#EAB308" stroke-width="2.72381" stroke-linecap="round" stroke-linejoin="round"/>
</svg>
