<svg width="1392" height="148" viewBox="0 0 1392 148" fill="none" xmlns="http://www.w3.org/2000/svg">
<g opacity="0.4">
<path d="M1373.22 129.478L1373.22 138.71L13.13 138.71L13.13 148L3.76895 148L3.76895 92.4929L13.13 92.4929L13.13 129.478L1373.22 129.478ZM1392 92.4928L1392 101.725L1377.9 101.725L1373.22 106.341L1373.22 111.014L1392 111.014L1392 148L1382.58 148L1382.58 120.246L22.5495 120.246L22.5495 92.4929L1363.86 92.4928L1368.54 97.1088L1373.22 92.4928L1392 92.4928ZM1363.86 106.341L1359.18 101.725L31.9105 101.725L31.9105 111.014L1363.86 111.014L1363.86 106.341Z" fill="url(#paint0_radial_805_3051)"/>
<path d="M1369.51 74.0288L1369.51 83.2608L-2.82984e-06 83.2609L-3.23338e-06 74.0289L1369.51 74.0288ZM1388.23 74.0288L1388.23 83.2608L1378.87 83.2608L1378.87 74.0288L1388.23 74.0288Z" fill="url(#paint1_radial_805_3051)"/>
<path d="M1388.23 37.0433L1388.23 64.7969L-3.63692e-06 64.797L-4.85007e-06 37.0434L1360.09 37.0433L1364.77 41.6593L1369.51 37.0433L1388.23 37.0433ZM1360.09 50.949L1355.41 46.2753L9.41951 46.2754L9.41951 55.565L1360.09 55.5649L1360.09 50.949ZM1378.87 46.2753L1374.19 46.2753L1369.51 50.949L1369.51 55.5649L1378.87 55.5649L1378.87 46.2753Z" fill="url(#paint2_radial_805_3051)"/>
<path d="M1369.51 6.29596e-05L1369.51 27.7537L-5.25613e-06 27.7538L-6.46928e-06 6.19932e-05L1369.51 6.29596e-05ZM1360.09 9.23201L9.4195 9.23201L9.41951 18.5217L1360.09 18.5217L1360.09 9.23201ZM1388.23 6.21413e-05L1388.23 27.7537L1378.87 27.7537L1378.87 6.25505e-05L1388.23 6.21413e-05Z" fill="url(#paint3_radial_805_3051)"/>
</g>
<defs>
<radialGradient id="paint0_radial_805_3051" cx="0" cy="0" r="1" gradientUnits="userSpaceOnUse" gradientTransform="translate(696 74.0001) scale(676 793.221)">
<stop stop-opacity="0"/>
<stop offset="1" stop-opacity="0.11"/>
</radialGradient>
<radialGradient id="paint1_radial_805_3051" cx="0" cy="0" r="1" gradientUnits="userSpaceOnUse" gradientTransform="translate(696 74.0001) scale(676 793.221)">
<stop stop-opacity="0"/>
<stop offset="1" stop-opacity="0.11"/>
</radialGradient>
<radialGradient id="paint2_radial_805_3051" cx="0" cy="0" r="1" gradientUnits="userSpaceOnUse" gradientTransform="translate(696 74.0001) scale(676 793.221)">
<stop stop-opacity="0"/>
<stop offset="1" stop-opacity="0.11"/>
</radialGradient>
<radialGradient id="paint3_radial_805_3051" cx="0" cy="0" r="1" gradientUnits="userSpaceOnUse" gradientTransform="translate(696 74.0001) scale(676 793.221)">
<stop stop-opacity="0"/>
<stop offset="1" stop-opacity="0.11"/>
</radialGradient>
</defs>
</svg>
