<svg width="34" height="34" viewBox="0 0 34 34" fill="none" xmlns="http://www.w3.org/2000/svg">
<g clip-path="url(#clip0_145_1797)">
<path d="M13.0476 20.8476L21.219 12.6762" stroke="#EAB308" stroke-width="2.72381" stroke-linecap="round" stroke-linejoin="round"/>
<path d="M13.7286 14.0381C14.1046 14.0381 14.4095 13.7332 14.4095 13.3571C14.4095 12.9811 14.1046 12.6762 13.7286 12.6762C13.3525 12.6762 13.0476 12.9811 13.0476 13.3571C13.0476 13.7332 13.3525 14.0381 13.7286 14.0381Z" fill="#EAB308" stroke="#EAB308" stroke-width="2.72381" stroke-linecap="round" stroke-linejoin="round"/>
<path d="M20.5381 20.8476C20.9141 20.8476 21.219 20.5427 21.219 20.1667C21.219 19.7906 20.9141 19.4857 20.5381 19.4857C20.162 19.4857 19.8571 19.7906 19.8571 20.1667C19.8571 20.5427 20.162 20.8476 20.5381 20.8476Z" fill="#EAB308" stroke="#EAB308" stroke-width="2.72381" stroke-linecap="round" stroke-linejoin="round"/>
<path d="M7.59999 10.2247C7.59999 9.43011 7.91566 8.66802 8.47755 8.10612C9.03945 7.54423 9.80154 7.22856 10.5962 7.22856H11.9581C12.7492 7.22811 13.5081 6.91478 14.069 6.35694L15.0224 5.40361C15.3008 5.1236 15.6318 4.90139 15.9965 4.74977C16.3611 4.59814 16.7521 4.52008 17.1469 4.52008C17.5418 4.52008 17.9328 4.59814 18.2974 4.74977C18.662 4.90139 18.9931 5.1236 19.2715 5.40361L20.2248 6.35694C20.7858 6.91478 21.5447 7.22811 22.3358 7.22856H23.6977C24.4923 7.22856 25.2544 7.54423 25.8163 8.10612C26.3782 8.66802 26.6939 9.43011 26.6939 10.2247V11.5867C26.6943 12.3778 27.0077 13.1366 27.5655 13.6976L28.5188 14.6509C28.7989 14.9294 29.0211 15.2604 29.1727 15.625C29.3243 15.9896 29.4024 16.3806 29.4024 16.7755C29.4024 17.1704 29.3243 17.5614 29.1727 17.926C29.0211 18.2906 28.7989 18.6216 28.5188 18.9001L27.5655 19.8534C27.0077 20.4144 26.6943 21.1732 26.6939 21.9644V23.3263C26.6939 24.1209 26.3782 24.883 25.8163 25.4449C25.2544 26.0068 24.4923 26.3225 23.6977 26.3225H22.3358C21.5447 26.3229 20.7858 26.6362 20.2248 27.1941L19.2715 28.1474C18.9931 28.4274 18.662 28.6496 18.2974 28.8013C17.9328 28.9529 17.5418 29.0309 17.1469 29.0309C16.7521 29.0309 16.3611 28.9529 15.9965 28.8013C15.6318 28.6496 15.3008 28.4274 15.0224 28.1474L14.069 27.1941C13.5081 26.6362 12.7492 26.3229 11.9581 26.3225H10.5962C9.80154 26.3225 9.03945 26.0068 8.47755 25.4449C7.91566 24.883 7.59999 24.1209 7.59999 23.3263V21.9644C7.59954 21.1732 7.28621 20.4144 6.72837 19.8534L5.77504 18.9001C5.49503 18.6216 5.27282 18.2906 5.12119 17.926C4.96957 17.5614 4.89151 17.1704 4.89151 16.7755C4.89151 16.3806 4.96957 15.9896 5.12119 15.625C5.27282 15.2604 5.49503 14.9294 5.77504 14.6509L6.72837 13.6976C7.28621 13.1366 7.59954 12.3778 7.59999 11.5867V10.2247" stroke="#EAB308" stroke-width="2.72381" stroke-linecap="round" stroke-linejoin="round"/>
</g>
<defs>
<clipPath id="clip0_145_1797">
<rect width="32.6857" height="32.6857" fill="white" transform="translate(0.790466 0.419037)"/>
</clipPath>
</defs>
</svg>
