<svg width="367" height="207" viewBox="0 0 367 207" fill="none" xmlns="http://www.w3.org/2000/svg">
<path d="M45.9287 160.952H23.0359V22.9522H0V0H137.643V22.9522H45.9287V160.952ZM137.643 207H114.75V172.428L103.304 160.952H91.7142V207H0V183.904H68.8214V46.0478H137.643V138L126.196 149.476L137.643 160.952V207ZM103.304 138L114.75 126.524V69H91.7142V138H103.304Z" fill="white"/>
<path d="M183.428 161.096H160.536V0H183.428V161.096ZM183.428 207H160.536V184.048H183.428V207Z" fill="white"/>
<path d="M275.143 207H206.321V0H275.143V138L263.696 149.476L275.143 161.096V207ZM240.66 138L252.25 126.524V23.0956H229.214V138H240.66ZM252.25 184.048V172.572L240.66 161.096H229.214V184.048H252.25Z" fill="white"/>
<path d="M367 161.096H298.179V0H367V161.096ZM344.107 138V23.0956H321.071V138H344.107ZM367 207H298.179V184.048H367V207Z" fill="white"/>
</svg>
