<svg width="154" height="155" viewBox="0 0 154 155" fill="none" xmlns="http://www.w3.org/2000/svg">
<path d="M74.5226 145.957L74.1964 152.555L72.4137 152.467L72.7399 145.869L74.5226 145.957ZM76.4355 152.448L76.3587 154.002L70.1084 153.693L70.1852 152.139L76.4355 152.448Z" fill="white"/>
<path d="M67.1949 145.369L65.693 153.237L63.9397 152.903L65.4417 145.034L67.1949 145.369ZM62.4591 144.465L64.106 148.259L62.1818 147.891L60.4279 144.077L62.4591 144.465ZM65.4346 147.626L65.1713 149.005L63.247 148.638C62.9905 148.589 62.76 148.596 62.5557 148.661C62.3428 148.731 62.1688 148.849 62.0337 149.015C61.8901 149.187 61.7944 149.398 61.7468 149.647C61.6992 149.897 61.7111 150.125 61.7827 150.33C61.8457 150.542 61.9639 150.716 62.1373 150.852C62.3022 150.994 62.5129 151.09 62.7695 151.139L64.6938 151.506L64.4101 152.992L62.6248 152.652C61.9763 152.528 61.4323 152.321 60.9929 152.03C60.5521 151.746 60.2402 151.388 60.0571 150.954C59.874 150.52 59.8382 150.011 59.9498 149.426L59.9824 149.255C60.0926 148.678 60.3163 148.222 60.6534 147.888C60.9821 147.559 61.4036 147.344 61.9178 147.243C62.4236 147.147 63.0007 147.161 63.6493 147.285L65.4346 147.626Z" fill="white"/>
<path d="M57.1267 143.077L54.7394 150.655L53.037 150.119L55.4243 142.541L57.1267 143.077Z" fill="white"/>
<path d="M50.2962 140.575L49.7301 141.848L48.0296 141.092C47.7247 140.956 47.4606 140.934 47.2373 141.025C47.0141 141.116 46.8376 141.308 46.7078 141.6C46.5781 141.891 46.5555 142.147 46.6402 142.368C46.7219 142.594 46.9152 142.776 47.2202 142.911L48.9206 143.668L48.4827 144.652L46.8619 143.931C46.358 143.707 45.9386 143.445 45.6034 143.145C45.2654 142.852 45.0441 142.519 44.9396 142.147C44.8351 141.775 44.8861 141.357 45.0925 140.893L45.1544 140.754C45.3461 140.323 45.6106 139.996 45.9481 139.773C46.2826 139.556 46.679 139.451 47.1372 139.456C47.5925 139.468 48.1052 139.601 48.6753 139.854L50.2962 140.575ZM51.6884 141.194L48.4109 148.563L46.8198 147.855L50.0973 140.487L51.6884 141.194ZM48.8056 143.926L48.3722 144.901L46.9402 144.264C46.6286 144.125 46.3679 144.105 46.1579 144.202C45.9479 144.299 45.7839 144.48 45.666 144.745C45.5421 145.024 45.5144 145.273 45.5829 145.494C45.6513 145.716 45.8413 145.895 46.1529 146.034L47.5849 146.671L47.0187 147.944L45.6862 147.351C44.8509 146.979 44.2893 146.519 44.0014 145.97C43.7069 145.418 43.7041 144.818 43.9931 144.168L44.0594 144.019C44.26 143.568 44.5367 143.258 44.8896 143.09C45.2359 142.918 45.6312 142.86 46.0754 142.914C46.51 142.973 46.9759 143.112 47.4731 143.334L48.8056 143.926Z" fill="white"/>
<path d="M39.702 134.799C40.3052 135.189 40.7653 135.633 41.0822 136.132C41.3891 136.633 41.5785 137.148 41.6504 137.679C41.7183 138.215 41.6954 138.731 41.5816 139.228C41.4618 139.721 41.2817 140.153 41.0414 140.525L40.9114 140.726C40.6435 141.14 40.3064 141.501 39.9002 141.809C39.4839 142.118 39.0202 142.341 38.5089 142.477C37.9976 142.613 37.4565 142.635 36.8857 142.542C36.3109 142.456 35.731 142.224 35.1461 141.845C34.5612 141.467 34.1113 141.034 33.7965 140.545C33.4778 140.063 33.2755 139.56 33.1897 139.038C33.1038 138.516 33.1167 138.002 33.2283 137.495C33.336 136.994 33.5238 136.537 33.7916 136.123L33.9216 135.922C34.1619 135.55 34.4852 135.21 34.8914 134.903C35.2977 134.595 35.7593 134.362 36.2763 134.204C36.7894 134.052 37.3403 134.015 37.9291 134.093C38.5078 134.174 39.0988 134.409 39.702 134.799ZM38.7979 136.197C38.4811 135.992 38.1623 135.864 37.8415 135.812C37.5147 135.756 37.1999 135.769 36.8972 135.85C36.5883 135.926 36.3055 136.063 36.0486 136.26C35.7918 136.457 35.5688 136.701 35.3797 136.994C35.1788 137.305 35.0444 137.619 34.9764 137.938C34.8984 138.26 34.8898 138.574 34.9504 138.881C35.0011 139.19 35.1178 139.477 35.3007 139.742C35.4835 140.007 35.7333 140.242 36.0502 140.447C36.367 140.652 36.6838 140.783 37.0006 140.841C37.3174 140.899 37.6302 140.89 37.9391 140.813C38.2379 140.738 38.5177 140.6 38.7785 140.397C39.0353 140.2 39.2642 139.946 39.4651 139.635C39.6542 139.343 39.7858 139.039 39.8598 138.724C39.9339 138.409 39.9456 138.097 39.895 137.788C39.8382 137.475 39.7204 137.182 39.5415 136.911C39.3626 136.64 39.1147 136.402 38.7979 136.197Z" fill="white"/>
<path d="M28.4417 126.023L23.7298 130.654L22.4788 129.381L27.1906 124.75L28.4417 126.023ZM25.4489 132.093L24.3389 133.183L19.9526 128.72L21.0626 127.629L25.4489 132.093Z" fill="white"/>
<path d="M23.4521 120.625L17.015 125.392L15.9527 123.958L22.3898 119.191L23.4521 120.625ZM20.5827 116.75L19.2226 120.656L18.0566 119.082L19.352 115.089L20.5827 116.75ZM20.6283 121.091L19.5 121.927L18.3341 120.352C18.1787 120.142 18.004 119.992 17.8101 119.901C17.606 119.808 17.398 119.777 17.1859 119.808C16.9637 119.837 16.7506 119.927 16.5465 120.078C16.3424 120.229 16.197 120.405 16.1102 120.604C16.0132 120.803 15.9822 121.011 16.0171 121.229C16.0419 121.445 16.1321 121.658 16.2875 121.868L17.4534 123.442L16.2377 124.343L15.156 122.882C14.7631 122.351 14.5036 121.83 14.3775 121.319C14.2456 120.812 14.2594 120.336 14.4188 119.893C14.5782 119.45 14.8969 119.052 15.3751 118.698L15.515 118.594C15.9873 118.244 16.4608 118.061 16.9354 118.043C17.3999 118.024 17.8555 118.152 18.3022 118.426C18.7388 118.698 19.1536 119.1 19.5466 119.63L20.6283 121.091Z" fill="white"/>
<path d="M17.6026 112.116L10.7114 116.07L9.82312 114.521L16.7143 110.568L17.6026 112.116Z" fill="white"/>
<path d="M14.2761 105.647L12.9971 106.199L12.2594 104.49C12.1271 104.184 11.948 103.988 11.7219 103.904C11.4959 103.82 11.2364 103.841 10.9433 103.968C10.6502 104.094 10.4601 104.267 10.373 104.487C10.2793 104.709 10.2986 104.973 10.4309 105.28L11.1686 106.988L10.1794 107.415L9.47619 105.787C9.25762 105.28 9.12678 104.803 9.08367 104.356C9.03389 103.911 9.09667 103.516 9.272 103.172C9.44733 102.827 9.76814 102.555 10.2344 102.353L10.3743 102.293C10.8073 102.106 11.2235 102.045 11.6228 102.11C12.0155 102.177 12.3786 102.368 12.7119 102.683C13.0386 103 13.3256 103.445 13.5729 104.018L14.2761 105.647ZM14.88 107.045L7.47597 110.242L6.78574 108.643L14.1898 105.447L14.88 107.045ZM10.9088 107.1L9.92956 107.523L9.30836 106.084C9.17319 105.771 8.99547 105.579 8.77521 105.508C8.55494 105.437 8.31158 105.46 8.04513 105.575C7.76536 105.695 7.57573 105.86 7.47625 106.069C7.37678 106.278 7.39462 106.539 7.52979 106.852L8.15099 108.291L6.87202 108.843L6.29396 107.504C5.93159 106.665 5.83059 105.946 5.99095 105.347C6.14844 104.742 6.55359 104.298 7.20639 104.016L7.35627 103.952C7.80924 103.756 8.22261 103.716 8.59638 103.831C8.96728 103.94 9.29752 104.165 9.5871 104.506C9.86714 104.843 10.115 105.262 10.3307 105.761L10.9088 107.1Z" fill="white"/>
<path d="M10.4014 94.219C10.5806 94.9146 10.6177 95.5531 10.5128 96.1346C10.399 96.7109 10.1888 97.2183 9.88222 97.6569C9.56861 98.0974 9.20167 98.4617 8.78138 98.7497C8.35929 99.0308 7.93394 99.2266 7.50534 99.337L7.27348 99.3967C6.7957 99.5198 6.30322 99.5568 5.79605 99.5076C5.28004 99.4532 4.78798 99.3028 4.31987 99.0562C3.85176 98.8097 3.43922 98.4589 3.08224 98.004C2.71823 97.5508 2.44935 96.9869 2.27557 96.3124C2.1018 95.6379 2.06478 95.0143 2.1645 94.4417C2.2572 93.8708 2.44891 93.3644 2.73963 92.9224C3.03035 92.4803 3.38846 92.1109 3.81396 91.8139C4.23243 91.5188 4.68056 91.3097 5.15834 91.1866L5.39021 91.1269C5.8188 91.0165 6.28669 90.9858 6.79386 91.035C7.30103 91.0842 7.79831 91.2258 8.28569 91.4598C8.76604 91.6957 9.19615 92.042 9.57601 92.4986C9.94704 92.9499 10.2222 93.5234 10.4014 94.219ZM8.78885 94.6344C8.69473 94.2691 8.54732 93.9586 8.34663 93.7031C8.14414 93.4406 7.90422 93.2365 7.62689 93.0906C7.34775 92.9378 7.04705 92.8466 6.7248 92.8173C6.40255 92.7879 6.07279 92.8167 5.73553 92.9036C5.3772 92.9959 5.06496 93.1362 4.79882 93.3247C4.52385 93.5079 4.30461 93.733 4.1411 93.9999C3.96876 94.2616 3.85997 94.5518 3.81474 94.8707C3.76951 95.1895 3.79396 95.5316 3.88809 95.897C3.98221 96.2624 4.12611 96.5737 4.31977 96.831C4.51343 97.0883 4.74983 97.2934 5.02897 97.4462C5.29928 97.5939 5.59907 97.6815 5.92835 97.709C6.2506 97.7384 6.59089 97.7069 6.94923 97.6146C7.28648 97.5277 7.58909 97.3936 7.85703 97.2122C8.12498 97.0307 8.34513 96.8092 8.51747 96.5475C8.68801 96.2788 8.7994 95.9841 8.85166 95.6635C8.90391 95.3428 8.88298 94.9998 8.78885 94.6344Z" fill="white"/>
<path d="M8.06954 80.1349L1.46668 80.346L1.40963 78.562L8.01249 78.3509L8.06954 80.1349ZM1.75554 82.569L0.200007 82.6187L0 76.364L1.55553 76.3142L1.75554 82.569Z" fill="white"/>
<path d="M8.05969 72.7836L0.0955264 71.9261L0.286613 70.1515L8.25077 71.009L8.05969 72.7836ZM8.57585 67.99L4.92876 69.9398L5.13849 67.992L8.79723 65.934L8.57585 67.99ZM5.66742 71.2125L4.27153 71.0622L4.48126 69.1144C4.50922 68.8547 4.48281 68.6257 4.40201 68.4272C4.31477 68.2208 4.18281 68.057 4.00612 67.9358C3.823 67.8066 3.60519 67.7284 3.35271 67.7012C3.10022 67.674 2.87437 67.7045 2.67516 67.7925C2.46951 67.8725 2.3057 68.0045 2.18373 68.1884C2.05532 68.3643 1.97714 68.5821 1.94918 68.8418L1.73945 70.7895L0.235346 70.6276L0.429928 68.8205C0.500615 68.164 0.662975 67.605 0.917009 67.1434C1.16383 66.6811 1.496 66.341 1.91351 66.1232C2.33103 65.9055 2.83555 65.8285 3.42709 65.8922L3.60023 65.9108C4.18456 65.9737 4.65712 66.1596 5.01793 66.4685C5.37231 66.7693 5.62086 67.1719 5.76359 67.6762C5.89989 68.1725 5.93269 68.7489 5.862 69.4054L5.66742 71.2125Z" fill="white"/>
<path d="M9.52593 62.5624L1.77922 60.7989L2.1754 59.0585L9.92211 60.822L9.52593 62.5624Z" fill="white"/>
<path d="M11.4645 55.5512L10.1499 55.0903L10.7655 53.3341C10.8759 53.0191 10.8766 52.7541 10.7674 52.539C10.6583 52.3239 10.4531 52.1635 10.1518 52.0579C9.85057 51.9523 9.59359 51.9507 9.3809 52.0529C9.16136 52.1528 8.99639 52.3602 8.88598 52.6752L8.27034 54.4315L7.25354 54.0751L7.84038 52.4009C8.0228 51.8806 8.24986 51.4412 8.52156 51.0828C8.78642 50.722 9.10002 50.4744 9.46236 50.3401C9.8247 50.2057 10.2455 50.2225 10.7248 50.3905L10.8686 50.4409C11.3137 50.5969 11.6611 50.834 11.9109 51.1522C12.1539 51.4681 12.2913 51.8545 12.3233 52.3117C12.3484 52.7664 12.2578 53.2882 12.0514 53.8771L11.4645 55.5512ZM10.9605 56.9891L3.3499 54.3213L3.92595 52.678L11.5365 55.3458L10.9605 56.9891ZM8.0033 54.3379L6.99677 53.9851L7.51521 52.5061C7.62802 52.1843 7.62746 51.9227 7.51353 51.7213C7.39961 51.5199 7.2057 51.3712 6.93182 51.2752C6.64424 51.1744 6.39308 51.167 6.17835 51.2532C5.96361 51.3394 5.79984 51.5434 5.68703 51.8652L5.16859 53.3442L3.85394 52.8834L4.33638 51.5071C4.6388 50.6444 5.05187 50.0472 5.57558 49.7157C6.10169 49.3773 6.70025 49.3257 7.37127 49.5609L7.52533 49.6149C7.99094 49.7781 8.3221 50.0288 8.51883 50.3668C8.71795 50.698 8.80833 51.0872 8.78997 51.5344C8.76716 51.9723 8.66575 52.4481 8.48573 52.9616L8.0033 54.3379Z" fill="white"/>
<path d="M16.3607 44.5225C16.021 45.1555 15.6156 45.6501 15.1443 46.0066C14.6701 46.3532 14.1716 46.5838 13.6489 46.6985C13.1198 46.8098 12.6031 46.829 12.0988 46.7559C11.5979 46.6765 11.1525 46.5322 10.7625 46.3229L10.5516 46.2096C10.1168 45.9763 9.72968 45.6697 9.39009 45.2898C9.04753 44.9001 8.78771 44.456 8.61061 43.9574C8.43351 43.4589 8.36791 42.9214 8.4138 42.3449C8.45331 41.765 8.63775 41.1682 8.96715 40.5544C9.29654 39.9407 9.69195 39.4571 10.1534 39.1036C10.6084 38.7467 11.0927 38.5043 11.606 38.3763C12.1194 38.2483 12.6331 38.2194 13.1472 38.2894C13.6549 38.3561 14.1261 38.506 14.5609 38.7394L14.7718 38.8526C15.1618 39.0619 15.5266 39.3565 15.8662 39.7364C16.2058 40.1163 16.4754 40.5574 16.6751 41.0599C16.8685 41.5589 16.95 42.105 16.9199 42.6981C16.8868 43.2815 16.7004 43.8896 16.3607 44.5225ZM14.8935 43.7351C15.0719 43.4027 15.1739 43.0745 15.1995 42.7506C15.2286 42.4204 15.1906 42.1076 15.0855 41.8124C14.9838 41.5108 14.8245 41.24 14.6075 41C14.3904 40.76 14.1285 40.5577 13.8216 40.393C13.4955 40.218 13.1708 40.1096 12.8474 40.0678C12.521 40.0161 12.2073 40.033 11.9062 40.1185C11.6021 40.1941 11.3254 40.3337 11.076 40.5375C10.8267 40.7413 10.6128 41.0094 10.4344 41.3419C10.2559 41.6743 10.1507 42.0007 10.1187 42.3212C10.0867 42.6416 10.1216 42.9527 10.2232 43.2542C10.3219 43.546 10.4829 43.8136 10.7064 44.057C10.9234 44.297 11.195 44.5045 11.521 44.6795C11.8279 44.8442 12.1413 44.9507 12.4613 44.9989C12.7812 45.0471 13.0933 45.0334 13.3974 44.9578C13.7049 44.8758 13.9865 44.7346 14.2422 44.5343C14.498 44.3339 14.7151 44.0675 14.8935 43.7351Z" fill="white"/>
<path d="M27.4869 28.9405L22.809 24.2757L24.0693 23.0119L28.7472 27.6766L27.4869 28.9405ZM21.3877 26.0093L20.2856 24.9104L24.7044 20.4791L25.8065 21.578L21.3877 26.0093Z" fill="white"/>
<path d="M32.8346 23.8965L28.0024 17.508L29.4259 16.4313L34.2581 22.8198L32.8346 23.8965ZM36.6798 20.988L32.7607 19.6675L34.3231 18.4857L38.329 19.7405L36.6798 20.988ZM32.3399 21.0775L31.4929 19.9578L33.0553 18.776C33.2636 18.6184 33.4124 18.4422 33.5016 18.2474C33.5921 18.0424 33.621 17.8341 33.5882 17.6223C33.5569 17.4004 33.4646 17.1882 33.3114 16.9857C33.1582 16.7832 32.9813 16.6395 32.7807 16.5547C32.5815 16.4597 32.3731 16.4308 32.1556 16.468C31.9395 16.495 31.7273 16.5873 31.519 16.7449L29.9566 17.9267L29.044 16.7201L30.4935 15.6237C31.0201 15.2254 31.5385 14.9606 32.0488 14.8294C32.5547 14.6924 33.03 14.7013 33.4747 14.8562C33.9193 15.0111 34.3211 15.3258 34.68 15.8003L34.7851 15.9392C35.1396 16.4079 35.328 16.8795 35.3503 17.3539C35.3739 17.8182 35.251 18.2751 34.9815 18.7246C34.7134 19.1639 34.316 19.5828 33.7894 19.9811L32.3399 21.0775Z" fill="white"/>
<path d="M41.2841 17.9611L37.2608 11.1103L38.7998 10.2064L42.8232 17.0573L41.2841 17.9611Z" fill="white"/>
<path d="M47.7192 14.5692L47.1541 13.2959L48.8552 12.541C49.1602 12.4056 49.3537 12.2245 49.4356 11.9976C49.5175 11.7707 49.4937 11.5114 49.3642 11.2196C49.2347 10.9278 49.0598 10.7395 48.8396 10.6547C48.6164 10.5632 48.3523 10.5851 48.0473 10.7205L46.3462 11.4755L45.9091 10.4906L47.5306 9.77102C48.0346 9.54734 48.5102 9.41167 48.9574 9.36403C49.4017 9.30975 49.7969 9.36853 50.1431 9.54036C50.4892 9.7122 50.7653 10.0302 50.9713 10.4945L51.0331 10.6337C51.2244 11.0648 51.2898 11.4803 51.2292 11.8803C51.1656 12.2737 50.9783 12.6386 50.6672 12.9751C50.3532 13.305 49.911 13.5965 49.3407 13.8496L47.7192 14.5692ZM46.3265 15.1873L43.0551 7.81602L44.6468 7.10964L47.9182 14.4809L46.3265 15.1873ZM46.2314 11.2168L45.7987 10.242L47.2312 9.60621C47.5429 9.46788 47.7331 9.28823 47.8017 9.06726C47.8703 8.84628 47.8458 8.60316 47.7281 8.33789C47.6045 8.05935 47.4377 7.8714 47.2278 7.77405C47.0179 7.67669 46.7571 7.69718 46.4454 7.83551L45.0129 8.47125L44.4478 7.19794L45.7808 6.60635C46.6164 6.2355 47.3344 6.12722 47.9347 6.28151C48.5417 6.43286 48.9894 6.83349 49.2778 7.48341L49.344 7.63263C49.5442 8.08359 49.5885 8.49654 49.4771 8.87145C49.3723 9.24343 49.1507 9.57593 48.8124 9.86895C48.4778 10.1524 48.0618 10.4045 47.5644 10.6252L46.2314 11.2168Z" fill="white"/>
<path d="M59.107 10.579C58.4132 10.7652 57.7751 10.8088 57.1926 10.7097C56.6152 10.6018 56.1057 10.3968 55.664 10.0947C55.2204 9.78553 54.8524 9.42229 54.5601 9.00494C54.2747 8.58572 54.0747 8.16238 53.9599 7.73492L53.8979 7.50367C53.7699 7.02716 53.728 6.53508 53.772 6.02744C53.8212 5.51091 53.9666 5.01735 54.2084 4.54677C54.4502 4.07618 54.7968 3.66011 55.2481 3.29854C55.6976 2.92997 56.2587 2.65538 56.9314 2.47479C57.6041 2.2942 58.2273 2.25086 58.8009 2.34478C59.3727 2.43169 59.881 2.61826 60.326 2.90449C60.7709 3.19071 61.144 3.54506 61.4452 3.96754C61.7446 4.383 61.9582 4.82899 62.0861 5.3055L62.1482 5.53675C62.263 5.96421 62.2983 6.43175 62.2543 6.9394C62.2103 7.44704 62.0737 7.94573 61.8446 8.43545C61.6136 8.91817 61.2717 9.35176 60.819 9.73623C60.3714 10.1118 59.8007 10.3927 59.107 10.579ZM58.6753 8.97074C59.0396 8.87292 59.3486 8.72238 59.602 8.51911C59.8625 8.31397 60.0642 8.072 60.2072 7.7932C60.3572 7.51253 60.4453 7.21092 60.4714 6.88839C60.4975 6.56586 60.4654 6.23641 60.3751 5.90005C60.2792 5.54267 60.1356 5.23187 59.9445 4.96765C59.7585 4.69455 59.5312 4.4776 59.2627 4.3168C58.9993 4.14712 58.7079 4.04127 58.3886 3.99928C58.0694 3.95728 57.7275 3.98519 57.3631 4.08301C56.9987 4.18083 56.6889 4.32787 56.4336 4.52413C56.1782 4.72038 55.9755 4.95885 55.8255 5.23953C55.6806 5.51131 55.5961 5.81198 55.5718 6.14152C55.5457 6.46405 55.5807 6.80401 55.6766 7.16139C55.7669 7.49775 55.9041 7.79898 56.0882 8.06507C56.2723 8.33117 56.4961 8.54906 56.7595 8.71875C57.03 8.88655 57.3258 8.99496 57.6469 9.04396C57.9681 9.09297 58.3109 9.06856 58.6753 8.97074Z" fill="white"/>
<path d="M78.08 8.00653L78.2725 1.4031L80.0566 1.45511L79.8641 8.05854L78.08 8.00653ZM76.036 1.55567L76.0813 0L82.3367 0.182338L82.2913 1.73801L76.036 1.55567Z" fill="white"/>
<path d="M85.4181 8.44565L86.7604 0.548727L88.52 0.847831L87.1777 8.74476L85.4181 8.44565ZM90.1713 9.2536L88.4478 5.49423L90.3791 5.82252L92.2099 9.60012L90.1713 9.2536ZM87.1324 6.1538L87.3677 4.76969L89.299 5.09798C89.5565 5.14175 89.7867 5.12937 89.9897 5.06084C90.2011 4.98637 90.3727 4.86466 90.5044 4.69571C90.6446 4.52081 90.7359 4.30819 90.7784 4.05783C90.821 3.80748 90.8044 3.58019 90.7288 3.37598C90.6614 3.16582 90.5397 2.99426 90.3636 2.86129C90.1959 2.72238 89.9833 2.63104 89.7257 2.58727L87.7944 2.25899L88.0479 0.767583L89.8398 1.07216C90.4907 1.1828 91.0388 1.379 91.484 1.66075C91.9304 1.93534 92.2495 2.28766 92.4414 2.71769C92.6332 3.14772 92.6793 3.65601 92.5796 4.24256L92.5504 4.41423C92.4519 4.99363 92.2375 5.45396 91.9072 5.79524C91.5853 6.13058 91.1683 6.35408 90.6562 6.46575C90.1525 6.57148 89.5751 6.56902 88.9242 6.45838L87.1324 6.1538Z" fill="white"/>
<path d="M95.5307 10.5333L97.764 2.90879L99.4769 3.41051L97.2436 11.0351L95.5307 10.5333Z" fill="white"/>
<path d="M102.41 12.8965L102.951 11.6124L104.666 12.3342C104.974 12.4636 105.238 12.4805 105.46 12.3847C105.681 12.2889 105.854 12.0939 105.977 11.7996C106.101 11.5053 106.118 11.2489 106.029 11.0304C105.943 10.8052 105.746 10.6278 105.439 10.4984L103.723 9.77665L104.141 8.78351L105.776 9.4715C106.284 9.68535 106.709 9.93882 107.05 10.2319C107.394 10.5183 107.622 10.8464 107.734 11.2163C107.846 11.5862 107.804 12.0052 107.607 12.4733L107.548 12.6138C107.365 13.0485 107.107 13.3808 106.774 13.6107C106.444 13.8339 106.05 13.9475 105.591 13.9515C105.136 13.9488 104.621 13.8265 104.046 13.5845L102.41 12.8965ZM101.006 12.3056L104.134 4.87213L105.739 5.54746L102.611 12.9809L101.006 12.3056ZM103.833 9.51582L104.246 8.53272L105.691 9.14051C106.005 9.27277 106.266 9.28818 106.474 9.18677C106.682 9.08535 106.843 8.90089 106.955 8.63338C107.073 8.35249 107.096 8.10225 107.023 7.88265C106.95 7.66306 106.757 7.48713 106.442 7.35488L104.998 6.74709L105.538 5.46304L106.882 6.02862C107.725 6.38317 108.296 6.83193 108.595 7.37491C108.9 7.9207 108.915 8.5213 108.639 9.1767L108.576 9.32718C108.385 9.78194 108.114 10.0972 107.765 10.2729C107.422 10.4514 107.028 10.5179 106.583 10.4722C106.147 10.4227 105.679 10.2924 105.177 10.0814L103.833 9.51582Z" fill="white"/>
<path d="M113.119 18.457C112.508 18.0793 112.039 17.6444 111.713 17.1522C111.396 16.6577 111.196 16.1461 111.113 15.6174C111.034 15.0825 111.047 14.5656 111.151 14.0667C111.26 13.5716 111.432 13.1358 111.664 12.7594L111.79 12.5557C112.05 12.136 112.379 11.7683 112.779 11.4526C113.189 11.1344 113.648 10.9022 114.157 10.7559C114.665 10.6096 115.206 10.5769 115.778 10.6579C116.355 10.7328 116.939 10.9533 117.532 11.3196C118.124 11.6858 118.583 12.1101 118.907 12.5922C119.236 13.0682 119.448 13.5663 119.545 14.0865C119.641 14.6067 119.639 15.1213 119.537 15.6302C119.44 16.1329 119.261 16.594 119.002 17.0137L118.876 17.2174C118.643 17.5938 118.327 17.94 117.927 18.2557C117.527 18.5715 117.07 18.8137 116.556 18.9823C116.047 19.1448 115.497 19.1929 114.906 19.1266C114.326 19.0579 113.73 18.8347 113.119 18.457ZM113.995 17.0406C114.316 17.239 114.637 17.3609 114.959 17.4062C115.287 17.4554 115.601 17.4365 115.902 17.3497C116.21 17.2666 116.49 17.1241 116.742 16.9222C116.995 16.7202 117.213 16.4711 117.396 16.1748C117.591 15.8601 117.719 15.5426 117.78 15.2223C117.852 14.8997 117.854 14.5855 117.787 14.2798C117.73 13.9716 117.608 13.6869 117.42 13.4256C117.232 13.1642 116.977 12.9344 116.656 12.736C116.335 12.5376 116.016 12.4126 115.698 12.3611C115.38 12.3096 115.067 12.3254 114.76 12.4084C114.463 12.4891 114.186 12.6335 113.929 12.8417C113.677 13.0436 113.453 13.302 113.258 13.6168C113.075 13.913 112.95 14.2193 112.882 14.5358C112.814 14.8522 112.809 15.1645 112.866 15.4726C112.929 15.7846 113.053 16.0743 113.237 16.3418C113.421 16.6093 113.674 16.8423 113.995 17.0406Z" fill="white"/>
<path d="M127.993 30.514L132.935 26.1297L134.119 27.4649L129.178 31.8492L127.993 30.514ZM131.291 24.6052L132.455 23.5724L136.609 28.2535L135.444 29.2864L131.291 24.6052Z" fill="white"/>
<path d="M132.701 36.1597L139.373 31.7267L140.361 33.2133L133.689 37.6464L132.701 36.1597ZM135.369 40.1754L136.927 36.3443L138.011 37.9759L136.514 41.8977L135.369 40.1754ZM135.545 35.8381L136.714 35.0611L137.799 36.6928C137.943 36.9103 138.11 37.0695 138.299 37.1704C138.498 37.2734 138.704 37.3149 138.918 37.2951C139.141 37.2774 139.358 37.1982 139.57 37.0577C139.781 36.9171 139.936 36.7493 140.032 36.5543C140.139 36.3613 140.181 36.1551 140.157 35.9357C140.143 35.7183 140.064 35.5009 139.92 35.2833L138.836 33.6517L140.096 32.8144L141.101 34.3283C141.467 34.8782 141.699 35.4118 141.799 35.9291C141.905 36.4425 141.867 36.9163 141.685 37.3507C141.504 37.7851 141.165 38.1669 140.669 38.4962L140.524 38.5925C140.035 38.9178 139.553 39.077 139.078 39.0703C138.613 39.0655 138.164 38.9149 137.732 38.6185C137.31 38.324 136.916 37.9018 136.551 37.3519L135.545 35.8381Z" fill="white"/>
<path d="M138.109 44.9561L145.193 41.3586L146.001 42.95L138.918 46.5475L138.109 44.9561Z" fill="white"/>
<path d="M141.102 51.5862L142.407 51.1L143.057 52.844C143.174 53.1567 143.342 53.3609 143.564 53.4565C143.785 53.5521 144.046 53.5442 144.345 53.4327C144.644 53.3213 144.843 53.1582 144.941 52.9436C145.046 52.7264 145.04 52.4615 144.923 52.1487L144.274 50.4047L145.283 50.0286L145.903 51.691C146.095 52.2078 146.202 52.6908 146.222 53.14C146.249 53.5868 146.166 53.9777 145.973 54.3127C145.781 54.6477 145.446 54.9038 144.97 55.0811L144.828 55.1343C144.386 55.2989 143.967 55.3388 143.571 55.2539C143.183 55.1664 142.83 54.9571 142.513 54.6261C142.203 54.2925 141.939 53.8334 141.721 53.2487L141.102 51.5862ZM140.57 50.1584L148.127 47.3433L148.735 48.9751L141.178 51.7902L140.57 50.1584ZM144.539 50.3059L145.538 49.9336L146.085 51.4023C146.204 51.7218 146.372 51.9226 146.589 52.0046C146.805 52.0866 147.049 52.0769 147.321 51.9756C147.607 51.8692 147.804 51.7143 147.914 51.5107C148.024 51.3071 148.02 51.0456 147.901 50.726L147.354 49.2574L148.659 48.7711L149.168 50.1377C149.487 50.9944 149.552 51.7177 149.361 52.3075C149.173 52.904 148.746 53.3264 148.079 53.5746L147.926 53.6316C147.464 53.8039 147.049 53.8229 146.682 53.6888C146.317 53.5614 145.998 53.32 145.727 52.9644C145.464 52.6131 145.238 52.1825 145.048 51.6726L144.539 50.3059Z" fill="white"/>
<path d="M144.389 63.1965C144.246 62.4926 144.241 61.853 144.376 61.2776C144.519 60.7079 144.754 60.2119 145.083 59.7894C145.419 59.3655 145.804 59.0204 146.238 58.7541C146.674 58.4949 147.109 58.3211 147.542 58.2327L147.777 58.1849C148.26 58.0863 148.754 58.0745 149.258 58.1494C149.771 58.23 150.254 58.4053 150.709 58.6754C151.164 58.9455 151.558 59.3168 151.892 59.7894C152.232 60.2605 152.472 60.8373 152.611 61.5198C152.75 62.2023 152.756 62.827 152.627 63.3938C152.505 63.9592 152.288 64.4552 151.975 64.8818C151.662 65.3085 151.286 65.6592 150.846 65.9341C150.413 66.2075 149.954 66.3935 149.471 66.4921L149.236 66.5399C148.803 66.6283 148.334 66.6351 147.83 66.5602C147.326 66.4852 146.836 66.3184 146.362 66.0598C145.894 65.7998 145.482 65.4321 145.126 64.9567C144.778 64.487 144.533 63.9003 144.389 63.1965ZM146.021 62.8637C146.096 63.2334 146.228 63.551 146.415 63.8163C146.604 64.0888 146.833 64.305 147.103 64.4647C147.374 64.6316 147.669 64.738 147.99 64.7837C148.31 64.8295 148.641 64.8175 148.982 64.748C149.345 64.674 149.664 64.5497 149.939 64.3751C150.223 64.2061 150.453 63.9925 150.63 63.7343C150.816 63.4817 150.939 63.1974 151.001 62.8813C151.062 62.5651 151.055 62.2222 150.98 61.8525C150.904 61.4829 150.776 61.1646 150.596 60.8978C150.416 60.6309 150.19 60.4141 149.919 60.2472C149.657 60.0859 149.362 59.9832 149.034 59.9389C148.714 59.8931 148.373 59.9072 148.01 59.9812C147.669 60.0508 147.36 60.1693 147.083 60.3368C146.806 60.5044 146.575 60.7144 146.389 60.967C146.205 61.2266 146.079 61.5153 146.011 61.8328C145.942 62.1504 145.945 62.4941 146.021 62.8637Z" fill="white"/>
<path d="M145.798 82.2912L152.378 82.8866L152.217 84.6642L145.637 84.0688L145.798 82.2912ZM152.362 80.6449L153.912 80.7852L153.348 87.0177L151.798 86.8774L152.362 80.6449Z" fill="white"/>
<path d="M144.912 89.5887L152.712 91.4108L152.306 93.1489L144.506 91.3268L144.912 89.5887ZM143.815 94.2837L147.673 92.793L147.227 94.7007L143.345 96.2973L143.815 94.2837ZM147.095 91.4398L148.462 91.7591L148.016 93.6668C147.957 93.9212 147.955 94.1517 148.011 94.3585C148.073 94.5741 148.184 94.7527 148.344 94.8946C148.51 95.0451 148.717 95.1493 148.964 95.207C149.211 95.2648 149.439 95.2621 149.648 95.1991C149.862 95.1447 150.04 95.0337 150.184 94.866C150.333 94.7071 150.437 94.5005 150.496 94.2461L150.942 92.3384L152.415 92.6826L152.002 94.4524C151.851 95.0954 151.622 95.6304 151.314 96.0576C151.012 96.4864 150.641 96.7835 150.2 96.9487C149.759 97.1139 149.249 97.1289 148.67 96.9935L148.5 96.9539C147.928 96.8202 147.481 96.5781 147.161 96.2276C146.846 95.8858 146.648 95.4559 146.568 94.9379C146.493 94.4287 146.531 93.8526 146.681 93.2097L147.095 91.4398Z" fill="white"/>
<path d="M142.21 99.555L149.684 102.25L149.079 103.929L141.605 101.234L142.21 99.555Z" fill="white"/>
<path d="M139.432 106.278L140.68 106.895L139.855 108.563C139.707 108.863 139.674 109.126 139.756 109.352C139.838 109.579 140.022 109.763 140.309 109.905C140.595 110.046 140.85 110.079 141.073 110.004C141.303 109.931 141.492 109.746 141.64 109.446L142.465 107.778L143.431 108.256L142.645 109.846C142.4 110.34 142.121 110.749 141.808 111.071C141.501 111.397 141.16 111.605 140.784 111.694C140.408 111.783 139.992 111.715 139.537 111.49L139.4 111.422C138.977 111.213 138.661 110.936 138.452 110.589C138.25 110.246 138.16 109.846 138.184 109.388C138.215 108.934 138.368 108.427 138.645 107.868L139.432 106.278ZM140.107 104.912L147.336 108.488L146.564 110.048L139.335 106.473L140.107 104.912ZM142.719 107.904L143.675 108.377L142.98 109.781C142.829 110.087 142.798 110.347 142.886 110.561C142.975 110.774 143.149 110.946 143.409 111.074C143.682 111.209 143.931 111.247 144.154 111.188C144.378 111.129 144.565 110.946 144.717 110.64L145.412 109.236L146.66 109.853L146.014 111.16C145.608 111.98 145.125 112.522 144.565 112.787C144.002 113.059 143.401 113.037 142.764 112.722L142.618 112.65C142.175 112.431 141.877 112.142 141.723 111.782C141.566 111.429 141.524 111.032 141.597 110.59C141.673 110.159 141.831 109.699 142.072 109.211L142.719 107.904Z" fill="white"/>
<path d="M133.227 116.627C133.642 116.04 134.104 115.599 134.616 115.302C135.129 115.016 135.652 114.848 136.184 114.798C136.723 114.752 137.238 114.796 137.73 114.93C138.217 115.07 138.642 115.267 139.003 115.523L139.199 115.661C139.602 115.945 139.949 116.297 140.24 116.715C140.532 117.144 140.736 117.616 140.851 118.133C140.966 118.649 140.965 119.191 140.85 119.757C140.74 120.328 140.484 120.898 140.082 121.467C139.68 122.036 139.229 122.468 138.728 122.762C138.233 123.061 137.722 123.243 137.197 123.307C136.672 123.371 136.159 123.338 135.657 123.205C135.161 123.077 134.712 122.871 134.309 122.586L134.113 122.448C133.752 122.193 133.426 121.856 133.135 121.438C132.844 121.019 132.63 120.549 132.493 120.026C132.362 119.507 132.348 118.955 132.45 118.37C132.554 117.795 132.813 117.214 133.227 116.627ZM134.588 117.587C134.37 117.896 134.229 118.209 134.164 118.527C134.095 118.852 134.094 119.167 134.163 119.472C134.227 119.784 134.352 120.072 134.538 120.337C134.724 120.602 134.96 120.834 135.244 121.035C135.546 121.249 135.856 121.396 136.171 121.477C136.489 121.568 136.803 121.589 137.112 121.541C137.423 121.503 137.715 121.398 137.987 121.227C138.259 121.055 138.504 120.815 138.722 120.506C138.939 120.198 139.084 119.887 139.154 119.573C139.225 119.259 139.229 118.946 139.165 118.634C139.102 118.332 138.975 118.047 138.783 117.778C138.597 117.514 138.352 117.275 138.05 117.061C137.766 116.86 137.468 116.716 137.156 116.63C136.844 116.543 136.533 116.518 136.222 116.556C135.907 116.6 135.61 116.706 135.332 116.874C135.053 117.041 134.805 117.279 134.588 117.587Z" fill="white"/>
<path d="M120.285 130.737L124.359 135.937L122.954 137.038L118.88 131.837L120.285 130.737ZM125.981 134.389L126.941 135.614L122.015 139.474L121.055 138.249L125.981 134.389Z" fill="white"/>
<path d="M114.362 135.091L118.379 142.021L116.835 142.916L112.818 135.986L114.362 135.091ZM110.191 137.509L113.92 139.297L112.225 140.28L108.402 138.546L110.191 137.509ZM114.509 137.949L115.213 139.164L113.519 140.146C113.293 140.277 113.123 140.434 113.011 140.617C112.896 140.809 112.842 141.012 112.849 141.226C112.853 141.451 112.919 141.672 113.046 141.892C113.173 142.112 113.332 142.276 113.52 142.385C113.706 142.503 113.91 142.557 114.13 142.547C114.348 142.546 114.57 142.481 114.796 142.35L116.491 141.367L117.249 142.676L115.677 143.587C115.106 143.919 114.559 144.118 114.036 144.186C113.518 144.261 113.047 144.194 112.624 143.986C112.202 143.778 111.842 143.417 111.543 142.902L111.456 142.751C111.161 142.243 111.032 141.752 111.067 141.278C111.1 140.814 111.278 140.376 111.6 139.963C111.92 139.559 112.366 139.192 112.937 138.861L114.509 137.949Z" fill="white"/>
<path d="M105.252 139.952L108.41 147.242L106.772 147.952L103.614 140.661L105.252 139.952Z" fill="white"/>
<path d="M98.4512 142.534L98.8569 143.867L97.0764 144.409C96.7571 144.506 96.543 144.662 96.4341 144.877C96.3251 145.092 96.3172 145.353 96.4101 145.658C96.5031 145.964 96.6537 146.172 96.8619 146.283C97.0723 146.401 97.3371 146.411 97.6564 146.314L99.4368 145.772L99.7506 146.803L98.0534 147.319C97.5259 147.48 97.0373 147.557 96.5876 147.549C96.1401 147.549 95.755 147.443 95.4324 147.23C95.1097 147.017 94.8745 146.668 94.7266 146.182L94.6822 146.036C94.5449 145.585 94.5307 145.165 94.6396 144.775C94.7507 144.392 94.9811 144.053 95.3308 143.757C95.6827 143.468 96.1571 143.232 96.7541 143.051L98.4512 142.534ZM99.9088 142.09L102.257 149.805L100.591 150.313L98.243 142.597L99.9088 142.09ZM99.5192 146.043L99.8298 147.063L98.3305 147.52C98.0043 147.619 97.7936 147.774 97.6986 147.985C97.6035 148.196 97.5982 148.44 97.6827 148.718C97.7715 149.009 97.9141 149.216 98.1106 149.338C98.307 149.461 98.5684 149.472 98.8946 149.373L100.394 148.916L100.8 150.249L99.4044 150.674C98.5298 150.94 97.804 150.96 97.227 150.734C96.643 150.509 96.2475 150.057 96.0404 149.377L95.9929 149.221C95.8492 148.749 95.8555 148.334 96.0118 147.975C96.1612 147.619 96.4216 147.316 96.7931 147.066C97.1598 146.825 97.6035 146.626 98.124 146.467L99.5192 146.043Z" fill="white"/>
<path d="M86.6619 145.106C87.3732 145.006 88.0119 145.041 88.578 145.21C89.1379 145.387 89.6186 145.653 90.0202 146.007C90.4228 146.368 90.7438 146.773 90.983 147.223C91.2151 147.674 91.3621 148.118 91.4239 148.557L91.4573 148.794C91.5262 149.282 91.5078 149.776 91.4022 150.274C91.2905 150.781 91.0859 151.253 90.7886 151.691C90.4912 152.128 90.0965 152.499 89.6045 152.803C89.1134 153.114 88.523 153.318 87.8333 153.415C87.1436 153.512 86.5198 153.48 85.9619 153.316C85.405 153.16 84.9232 152.913 84.5164 152.575C84.1097 152.237 83.7826 151.839 83.5351 151.383C83.2887 150.935 83.131 150.466 83.0621 149.977L83.0287 149.74C82.9669 149.302 82.9888 148.834 83.0944 148.335C83.2 147.837 83.3963 147.358 83.6834 146.9C83.9716 146.449 84.3637 146.06 84.86 145.734C85.35 145.416 85.9506 145.207 86.6619 145.106ZM86.8944 146.755C86.5208 146.808 86.1958 146.92 85.9195 147.09C85.636 147.262 85.4062 147.478 85.2303 147.737C85.0472 147.997 84.923 148.286 84.8578 148.603C84.7925 148.92 84.7842 149.251 84.8328 149.596C84.8845 149.962 84.9891 150.288 85.1466 150.574C85.2979 150.867 85.497 151.11 85.744 151.303C85.9847 151.503 86.261 151.644 86.5728 151.724C86.8846 151.805 87.2273 151.819 87.6009 151.766C87.9745 151.714 88.2999 151.606 88.5773 151.442C88.8546 151.278 89.0849 151.066 89.268 150.806C89.4449 150.554 89.5655 150.266 89.6297 149.942C89.695 149.625 89.7017 149.283 89.6501 148.917C89.6015 148.572 89.502 148.256 89.3517 147.969C89.2014 147.683 89.0059 147.439 88.7651 147.239C88.5171 147.039 88.2368 146.896 87.924 146.808C87.6112 146.72 87.268 146.702 86.8944 146.755Z" fill="white"/>
</svg>
