<svg width="129" height="33" viewBox="0 0 129 33" fill="none" xmlns="http://www.w3.org/2000/svg">
<g clip-path="url(#clip0_2_1471)">
<path d="M54.1527 17.4051C54.1527 19.4532 53.6694 20.9944 52.703 22.0286C51.7364 23.0627 50.3298 23.5794 48.483 23.5786C46.4944 23.5786 45.0479 23.0619 44.1435 22.0286C43.239 20.9952 42.7863 19.454 42.7855 17.4051V6.0188H41.1353V17.5409C41.1353 19.163 41.397 20.5375 41.9205 21.6647C42.4155 22.7639 43.2673 23.6618 44.3368 24.2117C45.4289 24.7817 46.8089 25.0668 48.477 25.0668C50.0563 25.0668 51.3917 24.7817 52.4831 24.2117C53.5624 23.6554 54.4318 22.7613 54.9597 21.6647C55.5178 20.5327 55.7973 19.1581 55.7981 17.5409V6.0188H54.1467L54.1527 17.4051Z" fill="white"/>
<path d="M62.2503 6.0188H60.5999V24.8618H62.2503V6.0188Z" fill="white"/>
<path d="M87.8495 7.11094C86.6502 6.3533 85.26 5.97408 83.679 5.97327C82.1922 5.97327 80.8738 6.32823 79.7237 7.03817C78.8833 7.53631 78.2032 8.26628 77.7641 9.14126L77.4258 6.0133H72.2068C72.3022 6.80772 72.3746 7.9284 72.423 8.73495C72.4713 9.5415 72.4942 10.3286 72.4942 11.0988V32.4281H77.9236V22.1479C78.3792 22.9062 79.0167 23.538 79.778 23.9855C80.916 24.6832 82.2164 25.0321 83.679 25.0321C85.26 25.0321 86.6502 24.6472 87.8495 23.8775C89.0488 23.1078 89.9895 22.0117 90.6716 20.5894C91.3546 19.1704 91.6957 17.4622 91.6949 15.4651C91.6949 13.4922 91.3538 11.7942 90.6716 10.3711C89.9895 8.94801 89.0488 7.86129 87.8495 7.11094ZM85.0804 19.5803C84.3137 20.4698 83.2952 20.9145 82.0252 20.9145C80.7783 20.9145 79.7656 20.4698 78.9867 19.5803C78.2079 18.6909 77.8184 17.3196 77.8184 15.4663C77.8184 13.6131 78.2079 12.2535 78.9867 11.3875C79.7656 10.5215 80.7783 10.0885 82.0252 10.0885C83.2944 10.0885 84.3129 10.5215 85.0804 11.3875C85.848 12.2535 86.2314 13.6131 86.2306 15.4663C86.2306 17.3188 85.8472 18.6901 85.0804 19.5803Z" fill="white"/>
<path d="M105.063 6.01993C104.11 6.0023 103.167 6.21266 102.312 6.63364C101.485 7.06465 100.79 7.71212 100.299 8.5075C100.072 8.86731 99.8777 9.24732 99.7194 9.64274L99.3461 6.05752H94.1331C94.2285 6.85195 94.295 7.9787 94.3313 8.79738C94.3674 9.61605 94.3855 10.4214 94.3855 11.2146V25.0023H99.8498V15.5482C99.8498 14.4897 100.011 13.5873 100.333 12.841C100.627 12.1285 101.145 11.5322 101.808 11.143C102.466 10.759 103.299 10.5665 104.307 10.5657C104.746 10.5596 105.185 10.5896 105.619 10.6555C106.058 10.7456 106.486 10.8847 106.894 11.0703L106.931 6.27099C106.674 6.17705 106.409 6.11038 106.139 6.07208C105.782 6.0314 105.422 6.01399 105.063 6.01993Z" fill="white"/>
<path d="M125.899 10.4574C125.139 9.05603 123.982 7.91256 122.574 7.17173C121.135 6.40116 119.443 6.01587 117.5 6.01587C115.556 6.01587 113.874 6.40116 112.454 7.17173C111.053 7.91573 109.903 9.05777 109.146 10.4549C108.367 11.8748 107.978 13.5595 107.978 15.509C107.978 17.481 108.367 19.1791 109.146 20.6029C109.905 22.0034 111.054 23.1513 112.454 23.9055C113.879 24.6866 115.563 25.0775 117.505 25.0783C119.447 25.0791 121.138 24.6883 122.579 23.9055C123.984 23.1534 125.138 22.0038 125.899 20.5993C126.678 19.1803 127.068 17.4823 127.067 15.5052C127.067 13.5591 126.678 11.8764 125.899 10.4574ZM120.471 19.6254C119.738 20.5148 118.75 20.9595 117.505 20.9595C116.26 20.9595 115.271 20.5148 114.539 19.6254C113.807 18.7359 113.442 17.3646 113.442 15.5114C113.442 13.6581 113.807 12.2985 114.539 11.4325C115.27 10.5665 116.259 10.1335 117.505 10.1335C118.751 10.1335 119.739 10.5665 120.471 11.4325C121.202 12.2985 121.567 13.6581 121.566 15.5114C121.566 17.3646 121.2 18.7359 120.471 19.6254Z" fill="white"/>
<path d="M127.215 6.10023C127.246 6.08943 127.275 6.07432 127.301 6.05536C127.328 6.03669 127.353 6.01424 127.374 5.98865C127.416 5.93776 127.439 5.87323 127.439 5.80673C127.439 5.76113 127.431 5.71588 127.415 5.67332C127.398 5.63406 127.374 5.59856 127.343 5.56901C127.311 5.53933 127.274 5.5159 127.233 5.49987C127.187 5.48238 127.139 5.47374 127.09 5.4744H126.708V6.52595H126.906V6.13055H126.998L127.268 6.52595H127.494V6.51382L127.214 6.10995L127.215 6.10023ZM127.088 5.94863H126.906V5.65634H127.091C127.113 5.65617 127.135 5.6607 127.156 5.66967C127.174 5.67712 127.19 5.68828 127.203 5.70243C127.216 5.71573 127.226 5.73192 127.232 5.74973C127.238 5.76683 127.242 5.78487 127.242 5.80309C127.243 5.82258 127.239 5.842 127.231 5.86C127.224 5.878 127.213 5.89416 127.198 5.9074C127.184 5.92129 127.166 5.9321 127.148 5.93918C127.129 5.94626 127.109 5.94947 127.088 5.94863Z" fill="white"/>
<path d="M127.069 4.91626C126.851 4.91626 126.638 4.98108 126.457 5.10255C126.276 5.22402 126.135 5.39664 126.052 5.59861C125.969 5.80057 125.947 6.02281 125.99 6.23717C126.032 6.45153 126.137 6.64841 126.291 6.80289C126.445 6.95736 126.641 7.0625 126.855 7.105C127.069 7.14748 127.29 7.12544 127.491 7.04162C127.692 6.95781 127.864 6.816 127.985 6.63414C128.105 6.45228 128.17 6.23854 128.169 6.01996C128.169 5.72712 128.053 5.4464 127.847 5.23945C127.64 5.03249 127.361 4.91626 127.069 4.91626ZM127.069 6.9114C126.893 6.9114 126.722 6.85912 126.576 6.76116C126.43 6.66321 126.316 6.52398 126.249 6.3611C126.181 6.1982 126.164 6.01897 126.198 5.84605C126.232 5.67311 126.317 5.51428 126.441 5.3896C126.565 5.26494 126.724 5.18003 126.896 5.14564C127.068 5.11123 127.246 5.12888 127.409 5.19636C127.571 5.26383 127.71 5.37809 127.807 5.52469C127.905 5.67129 127.957 5.84364 127.957 6.01996C127.957 6.25637 127.863 6.48313 127.697 6.65031C127.53 6.81749 127.304 6.9114 127.069 6.9114Z" fill="white"/>
<path d="M0.159058 22.897H17.0461V30.4823H0.159058V22.897ZM17.0461 0.3573H0.159058V7.94252H17.0461V11.6272H0.159058V19.2123H17.0461C19.5367 19.2123 21.9252 18.2191 23.6864 16.4511C25.4474 14.6831 26.4368 12.2852 26.4368 9.78484C26.4368 7.2845 25.4474 4.88658 23.6864 3.11857C21.9252 1.35056 19.5367 0.3573 17.0461 0.3573Z" fill="#FFB800"/>
</g>
<defs>
<clipPath id="clip0_2_1471">
<rect width="128.007" height="32.1165" fill="white" transform="translate(0.159058 0.3573)"/>
</clipPath>
</defs>
</svg>
