<svg width="155" height="21" viewBox="0 0 155 21" fill="none" xmlns="http://www.w3.org/2000/svg">
<g clip-path="url(#clip0_2_1460)">
<path d="M5.42338 19.754H9.32899L12.9291 7.34908H13.0772L16.6866 19.754H20.5921L26.0156 0.78064H21.638L18.5006 13.9916H18.334L14.8819 0.78064H11.1337L7.67232 13.9639H7.51499L4.37757 0.78064H0L5.42338 19.754Z" fill="white"/>
<path d="M33.0377 20.0317C36.5546 20.0317 38.9238 18.3179 39.4791 15.6775L35.8327 15.4367C35.4348 16.5206 34.4167 17.0857 33.1025 17.0857C31.1312 17.0857 29.8818 15.7794 29.8818 13.6579V13.6486H39.5624V12.5647C39.5624 7.7287 36.6379 5.3385 32.8804 5.3385C28.6971 5.3385 25.9854 8.31236 25.9854 12.7037C25.9854 17.2155 28.6602 20.0317 33.0377 20.0317ZM29.8818 11.2028C29.9651 9.5816 31.196 8.28457 32.9452 8.28457C34.6573 8.28457 35.842 9.50746 35.8512 11.2028H29.8818Z" fill="white"/>
<path d="M42.2094 19.754H46.0964V17.475H46.2722C46.8183 18.6609 48.0121 19.9857 50.3073 19.9857C53.5466 19.9857 56.0732 17.4195 56.0732 12.6575C56.0732 7.76597 53.4355 5.33871 50.3166 5.33871C47.9381 5.33871 46.7998 6.75616 46.2722 7.9142H46.1519V0.78064H42.2094V19.754ZM46.0686 12.6391C46.0686 10.1006 47.1422 8.47933 49.058 8.47933C51.0108 8.47933 52.0473 10.1747 52.0473 12.6391C52.0473 15.1219 50.9922 16.8451 49.058 16.8451C47.1607 16.8451 46.0686 15.1774 46.0686 12.6391Z" fill="white"/>
<path d="M59.4259 19.754H61.7211V12.8243H65.8673C70.2819 12.8243 72.2717 10.1377 72.2717 6.78395C72.2717 3.43025 70.2819 0.78064 65.8303 0.78064H59.4259V19.754ZM61.7211 10.7862V2.8188H65.7562C68.8382 2.8188 70.0136 4.50491 70.0136 6.78395C70.0136 9.06298 68.8382 10.7862 65.7933 10.7862H61.7211Z" fill="white"/>
<path d="M75.6729 19.7541H77.8571V10.7492C77.8571 8.82222 79.3749 7.41403 81.448 7.41403C82.0311 7.41403 82.6326 7.5252 82.7807 7.56226V5.33882C82.5309 5.32028 81.957 5.30176 81.6331 5.30176C79.9302 5.30176 78.4494 6.26525 77.9311 7.67343H77.783V5.5241H75.6729V19.7541Z" fill="white"/>
<path d="M90.7121 20.0503C94.5617 20.0503 97.1535 17.1228 97.1535 12.713C97.1535 8.26603 94.5617 5.3385 90.7121 5.3385C86.862 5.3385 84.2707 8.26603 84.2707 12.713C84.2707 17.1228 86.862 20.0503 90.7121 20.0503ZM90.7121 18.0863C87.7875 18.0863 86.4548 15.5664 86.4548 12.713C86.4548 9.85952 87.7875 7.30254 90.7121 7.30254C93.6368 7.30254 94.969 9.85952 94.969 12.713C94.969 15.5664 93.6368 18.0863 90.7121 18.0863Z" fill="white"/>
<path d="M106.263 20.0503C109.409 20.0503 111.482 18.1233 111.853 15.6034H109.668C109.261 17.1598 107.966 18.0863 106.263 18.0863C103.671 18.0863 102.005 15.9369 102.005 12.6389C102.005 9.41482 103.708 7.30254 106.263 7.30254C108.187 7.30254 109.335 8.48838 109.668 9.78542H111.853C111.482 7.11726 109.224 5.3385 106.225 5.3385C102.376 5.3385 99.8214 8.37721 99.8214 12.713C99.8214 16.9746 102.264 20.0503 106.263 20.0503Z" fill="white"/>
<path d="M121.005 20.0503C123.893 20.0503 126.003 18.6051 126.67 16.4558L124.56 15.8628C124.004 17.3451 122.718 18.0863 121.005 18.0863C118.442 18.0863 116.675 16.4279 116.572 13.38H126.892V12.4535C126.892 7.15431 123.745 5.3385 120.784 5.3385C116.933 5.3385 114.379 8.37721 114.379 12.75C114.379 17.1228 116.896 20.0503 121.005 20.0503ZM116.572 11.49C116.72 9.27586 118.285 7.30254 120.784 7.30254C123.153 7.30254 124.671 9.0813 124.671 11.49H116.572Z" fill="white"/>
<path d="M140.284 8.71073C139.599 6.6911 138.062 5.3385 135.249 5.3385C132.25 5.3385 130.029 7.04314 130.029 9.45188C130.029 11.4159 131.195 12.7314 133.805 13.3429L136.174 13.8988C137.609 14.2323 138.284 14.9179 138.284 15.8998C138.284 17.1228 136.989 18.1233 134.953 18.1233C133.166 18.1233 132.047 17.3544 131.658 15.8257L129.585 16.3445C130.093 18.7626 132.084 20.0503 134.99 20.0503C138.294 20.0503 140.543 18.2438 140.543 15.7887C140.543 13.8062 139.303 12.5555 136.767 11.9347L134.657 11.4159C132.972 10.999 132.213 10.4339 132.213 9.34071C132.213 8.11781 133.509 7.22843 135.249 7.22843C137.155 7.22843 137.942 8.28457 138.322 9.26659L140.284 8.71073Z" fill="white"/>
<path d="M153.9 8.71073C153.215 6.6911 151.679 5.3385 148.865 5.3385C145.867 5.3385 143.646 7.04314 143.646 9.45188C143.646 11.4159 144.812 12.7314 147.422 13.3429L149.791 13.8988C151.226 14.2323 151.901 14.9179 151.901 15.8998C151.901 17.1228 150.606 18.1233 148.569 18.1233C146.783 18.1233 145.663 17.3544 145.275 15.8257L143.202 16.3445C143.711 18.7626 145.701 20.0503 148.606 20.0503C151.91 20.0503 154.159 18.2438 154.159 15.7887C154.159 13.8062 152.919 12.5555 150.383 11.9347L148.273 11.4159C146.589 10.999 145.829 10.4339 145.829 9.34071C145.829 8.11781 147.126 7.22843 148.865 7.22843C150.772 7.22843 151.559 8.28457 151.938 9.26659L153.9 8.71073Z" fill="white"/>
</g>
<defs>
<clipPath id="clip0_2_1460">
<rect width="154.159" height="19.2699" fill="white" transform="translate(0 0.78064)"/>
</clipPath>
</defs>
</svg>
