<svg width="24" height="24" viewBox="0 0 24 24" fill="none" xmlns="http://www.w3.org/2000/svg">
<path d="M3 3L21 21" stroke="#191919" stroke-width="2" stroke-linecap="round" stroke-linejoin="round"/>
<path d="M14.8281 9.17212C15.5783 9.92209 15.9999 10.9393 16.0001 12.0001" stroke="#191919" stroke-width="2" stroke-linecap="round" stroke-linejoin="round"/>
<path d="M17.6572 6.34302C18.8071 7.4923 19.5795 8.96463 19.8716 10.5639C20.1637 12.1632 19.9616 13.8135 19.2922 15.295" stroke="#191919" stroke-width="2" stroke-linecap="round" stroke-linejoin="round"/>
<path d="M9.16822 14.8281C8.41833 14.078 7.99707 13.0608 7.99707 12.0001C7.99707 10.9395 8.41833 9.92223 9.16822 9.17212" stroke="#191919" stroke-width="2" stroke-linecap="round" stroke-linejoin="round"/>
<path d="M6.33694 17.657C5.59403 16.9141 5.00472 16.0322 4.60266 15.0616C4.20059 14.0909 3.99365 13.0506 3.99365 12C3.99365 10.9494 4.20059 9.90909 4.60266 8.93846C5.00472 7.96782 5.59403 7.08589 6.33694 6.34302" stroke="#191919" stroke-width="2" stroke-linecap="round" stroke-linejoin="round"/>
</svg>
