<svg width="24" height="24" viewBox="0 0 24 24" fill="none" xmlns="http://www.w3.org/2000/svg">
<path d="M19.9998 15.0001H11.9998V18.5861C11.9998 18.7838 11.9411 18.9771 11.8313 19.1416C11.7214 19.306 11.5652 19.4341 11.3825 19.5098C11.1998 19.5854 10.9988 19.6052 10.8048 19.5667C10.6109 19.5281 10.4327 19.4329 10.2928 19.2931L3.70685 12.7071C3.51938 12.5196 3.41406 12.2653 3.41406 12.0001C3.41406 11.7349 3.51938 11.4806 3.70685 11.2931L10.2928 4.70709C10.4327 4.56728 10.6109 4.47208 10.8048 4.43351C10.9988 4.39494 11.1998 4.41475 11.3825 4.49042C11.5652 4.56609 11.7214 4.69423 11.8313 4.85864C11.9411 5.02305 11.9998 5.21634 11.9998 5.41409V9.00009H19.9998C20.2651 9.00009 20.5194 9.10545 20.707 9.29299C20.8945 9.48052 20.9998 9.73488 20.9998 10.0001V14.0001C20.9998 14.2653 20.8945 14.5197 20.707 14.7072C20.5194 14.8947 20.2651 15.0001 19.9998 15.0001V15.0001Z" stroke="#191919" stroke-width="2" stroke-linecap="round" stroke-linejoin="round"/>
</svg>
