<svg width="24" height="24" viewBox="0 0 24 24" fill="none" xmlns="http://www.w3.org/2000/svg">
<path d="M12 21C16.9706 21 21 16.9706 21 12C21 7.02944 16.9706 3 12 3C7.02944 3 3 7.02944 3 12C3 16.9706 7.02944 21 12 21Z" stroke="#191919" stroke-width="2" stroke-linecap="round" stroke-linejoin="round"/>
<path d="M7.5 13.5C8.31736 15.1672 9.51044 16.622 10.9854 17.7499C12.4603 18.8778 14.1769 19.648 16 20M12 12C12.7834 13.3877 13.9634 14.5098 15.3888 15.2225C16.8141 15.9351 18.4198 16.2059 20 16L12 12Z" stroke="#191919" stroke-width="2" stroke-linecap="round" stroke-linejoin="round"/>
<path d="M12.951 7.35278C11.0984 7.22703 9.24203 7.53289 7.52777 8.24628C5.8135 8.95967 4.28818 10.0611 3.0718 11.464M12 11.9999C10.4065 11.9845 8.84473 12.4454 7.51488 13.3234C6.18503 14.2015 5.14771 15.4567 4.5359 16.9281L12 11.9999Z" stroke="#191919" stroke-width="2" stroke-linecap="round" stroke-linejoin="round"/>
<path d="M15.549 15.1472C16.5842 13.6058 17.2475 11.8451 17.4868 10.0038C17.7262 8.16256 17.5349 6.29085 16.9282 4.536M12 12.0001C12.8101 10.6278 13.1918 9.04481 13.0963 7.45411C13.0009 5.86341 12.4325 4.33747 11.4641 3.0719L12 12.0001Z" stroke="#191919" stroke-width="2" stroke-linecap="round" stroke-linejoin="round"/>
</svg>
