<svg width="24" height="24" viewBox="0 0 24 24" fill="none" xmlns="http://www.w3.org/2000/svg">
<path d="M3 7V15.5C3 16.163 3.26339 16.7989 3.73223 17.2678C4.20107 17.7366 4.83696 18 5.5 18H6.56C7.0098 17.9991 7.45365 17.8971 7.8587 17.7015C8.26374 17.5059 8.61962 17.2217 8.9 16.87L10.44 14.95C10.6274 14.7164 10.8649 14.5279 11.1349 14.3984C11.4049 14.2688 11.7005 14.2016 12 14.2016C12.2995 14.2016 12.5951 14.2688 12.8651 14.3984C13.1351 14.5279 13.3726 14.7164 13.56 14.95L15.1 16.87C15.3804 17.2217 15.7363 17.5059 16.1413 17.7015C16.5464 17.8971 16.9902 17.9991 17.44 18H18.5C19.163 18 19.7989 17.7366 20.2678 17.2678C20.7366 16.7989 21 16.163 21 15.5V7C21 6.46957 20.7893 5.96086 20.4142 5.58579C20.0391 5.21071 19.5304 5 19 5H5C4.46957 5 3.96086 5.21071 3.58579 5.58579C3.21071 5.96086 3 6.46957 3 7V7Z" stroke="#191919" stroke-width="2" stroke-linecap="round" stroke-linejoin="round"/>
<path d="M8 12C8.55228 12 9 11.5523 9 11C9 10.4477 8.55228 10 8 10C7.44772 10 7 10.4477 7 11C7 11.5523 7.44772 12 8 12Z" stroke="#191919" stroke-width="2" stroke-linecap="round" stroke-linejoin="round"/>
<path d="M16 12C16.5523 12 17 11.5523 17 11C17 10.4477 16.5523 10 16 10C15.4477 10 15 10.4477 15 11C15 11.5523 15.4477 12 16 12Z" stroke="#191919" stroke-width="2" stroke-linecap="round" stroke-linejoin="round"/>
</svg>
