<svg width="24" height="24" viewBox="0 0 24 24" fill="none" xmlns="http://www.w3.org/2000/svg">
<path d="M14.7022 10.696C14.4045 10.0811 13.9066 9.58566 13.2902 9.29102M9.88016 9.87802C9.59783 10.1557 9.37327 10.4866 9.21945 10.8515C9.06562 11.2164 8.98557 11.6082 8.98391 12.0042C8.98225 12.4002 9.05902 12.7927 9.20978 13.1589C9.36054 13.5251 9.58232 13.8578 9.86232 14.1379C10.1423 14.4179 10.475 14.6398 10.8412 14.7906C11.2073 14.9415 11.5997 15.0183 11.9957 15.0168C12.3918 15.0152 12.7836 14.9352 13.1485 14.7815C13.5135 14.6278 13.8444 14.4033 14.1222 14.121L9.88016 9.87802Z" stroke="#191919" stroke-width="2" stroke-linecap="round" stroke-linejoin="round"/>
<path d="M18 18H5C4.46957 18 3.96086 17.7893 3.58579 17.4142C3.21071 17.0391 3 16.5304 3 16V8C3 7.46957 3.21071 6.96086 3.58579 6.58579C3.96086 6.21071 4.46957 6 5 6H6M10 6H19C19.5304 6 20.0391 6.21071 20.4142 6.58579C20.7893 6.96086 21 7.46957 21 8V16C21 16.294 20.936 16.574 20.822 16.825L10 6Z" stroke="#191919" stroke-width="2" stroke-linecap="round" stroke-linejoin="round"/>
<path d="M18 12H18.01" stroke="#191919" stroke-width="2" stroke-linecap="round" stroke-linejoin="round"/>
<path d="M6 12H6.01" stroke="#191919" stroke-width="2" stroke-linecap="round" stroke-linejoin="round"/>
<path d="M3 3L21 21" stroke="#191919" stroke-width="2" stroke-linecap="round" stroke-linejoin="round"/>
</svg>
