<svg width="24" height="24" viewBox="0 0 24 24" fill="none" xmlns="http://www.w3.org/2000/svg">
<path d="M12 12C12.3956 12 12.7822 11.8827 13.1111 11.6629C13.44 11.4432 13.6964 11.1308 13.8478 10.7654C13.9991 10.3999 14.0387 9.99778 13.9616 9.60982C13.8844 9.22186 13.6939 8.86549 13.4142 8.58579C13.1345 8.30608 12.7781 8.1156 12.3902 8.03843C12.0022 7.96126 11.6001 8.00087 11.2346 8.15224C10.8692 8.30362 10.5568 8.55996 10.3371 8.88886C10.1173 9.21776 10 9.60444 10 10" stroke="#191919" stroke-width="2" stroke-linecap="round" stroke-linejoin="round"/>
<path d="M10 14C10 14.3956 10.1173 14.7822 10.3371 15.1111C10.5568 15.44 10.8692 15.6964 11.2346 15.8478C11.6001 15.9991 12.0022 16.0387 12.3902 15.9616C12.7781 15.8844 13.1345 15.6939 13.4142 15.4142C13.6939 15.1345 13.8844 14.7781 13.9616 14.3902C14.0387 14.0022 13.9991 13.6001 13.8478 13.2346C13.6964 12.8692 13.44 12.5568 13.1111 12.3371C12.7822 12.1173 12.3956 12 12 12" stroke="#191919" stroke-width="2" stroke-linecap="round" stroke-linejoin="round"/>
<path d="M12 21C16.9706 21 21 16.9706 21 12C21 7.02944 16.9706 3 12 3C7.02944 3 3 7.02944 3 12C3 16.9706 7.02944 21 12 21Z" stroke="#191919" stroke-width="2" stroke-linecap="round" stroke-linejoin="round"/>
</svg>
