<svg width="24" height="24" viewBox="0 0 24 24" fill="none" xmlns="http://www.w3.org/2000/svg">
<path d="M5.63708 5.63497C4.79001 6.46803 4.11627 7.46055 3.65471 8.55529C3.19315 9.65003 2.95291 10.8253 2.94784 12.0134C2.94277 13.2014 3.17297 14.3787 3.62517 15.4774C4.07737 16.576 4.74262 17.5742 5.58254 18.4145C6.42247 19.2547 7.42044 19.9204 8.5189 20.373C9.61736 20.8256 10.7946 21.0563 11.9826 21.0517C13.1707 21.0471 14.3461 20.8073 15.441 20.3462C16.5359 19.8851 17.5287 19.2117 18.3621 18.365M20.0421 16.045C20.8941 14.3538 21.191 12.4371 20.8905 10.5674C20.5901 8.69777 19.7075 6.97053 18.3685 5.63153C17.0295 4.29253 15.3023 3.40999 13.4326 3.10951C11.563 2.80904 9.6462 3.10595 7.95507 3.95797L20.0421 16.045Z" stroke="#191919" stroke-width="2" stroke-linecap="round" stroke-linejoin="round"/>
<path d="M3 3L21 21" stroke="#191919" stroke-width="2" stroke-linecap="round" stroke-linejoin="round"/>
</svg>
