<svg width="24" height="24" viewBox="0 0 24 24" fill="none" xmlns="http://www.w3.org/2000/svg">
<path d="M12 11C14.2091 11 16 9.20914 16 7C16 4.79086 14.2091 3 12 3C9.79086 3 8 4.79086 8 7C8 9.20914 9.79086 11 12 11Z" stroke="#191919" stroke-width="2" stroke-linecap="round" stroke-linejoin="round"/>
<path d="M6.5 21C8.70914 21 10.5 19.2091 10.5 17C10.5 14.7909 8.70914 13 6.5 13C4.29086 13 2.5 14.7909 2.5 17C2.5 19.2091 4.29086 21 6.5 21Z" stroke="#191919" stroke-width="2" stroke-linecap="round" stroke-linejoin="round"/>
<path d="M17.5 21C19.7091 21 21.5 19.2091 21.5 17C21.5 14.7909 19.7091 13 17.5 13C15.2909 13 13.5 14.7909 13.5 17C13.5 19.2091 15.2909 21 17.5 21Z" stroke="#191919" stroke-width="2" stroke-linecap="round" stroke-linejoin="round"/>
</svg>
