<svg width="24" height="24" viewBox="0 0 24 24" fill="none" xmlns="http://www.w3.org/2000/svg">
<path d="M12 21C16.9706 21 21 16.9706 21 12C21 7.02944 16.9706 3 12 3C7.02944 3 3 7.02944 3 12C3 16.9706 7.02944 21 12 21Z" stroke="#191919" stroke-width="2" stroke-linecap="round" stroke-linejoin="round"/>
<path d="M14.8 9.00003C14.6188 8.6858 14.3557 8.42674 14.0386 8.25059C13.7215 8.07444 13.3625 7.98783 13 8.00003H11C10.4696 8.00003 9.96086 8.21075 9.58579 8.58582C9.21071 8.96089 9 9.4696 9 10C9 10.5305 9.21071 11.0392 9.58579 11.4142C9.96086 11.7893 10.4696 12 11 12H13C13.5304 12 14.0391 12.2107 14.4142 12.5858C14.7893 12.9609 15 13.4696 15 14C15 14.5305 14.7893 15.0392 14.4142 15.4142C14.0391 15.7893 13.5304 16 13 16H11C10.6375 16.0122 10.2785 15.9256 9.96142 15.7495C9.64435 15.5733 9.38115 15.3143 9.2 15" stroke="#191919" stroke-width="2" stroke-linecap="round" stroke-linejoin="round"/>
<path d="M12 16V18M12 6V8V6Z" stroke="#191919" stroke-width="2" stroke-linecap="round" stroke-linejoin="round"/>
</svg>
