<svg width="24" height="24" viewBox="0 0 24 24" fill="none" xmlns="http://www.w3.org/2000/svg">
<path d="M10 15H4C3.73478 15 3.48043 14.8946 3.29289 14.7071C3.10536 14.5196 3 14.2652 3 14V6C3 5.73478 3.10536 5.48043 3.29289 5.29289C3.48043 5.10536 3.73478 5 4 5H10" stroke="#191919" stroke-width="2" stroke-linecap="round" stroke-linejoin="round"/>
<path d="M20 4H14C13.4477 4 13 4.44772 13 5V19C13 19.5523 13.4477 20 14 20H20C20.5523 20 21 19.5523 21 19V5C21 4.44772 20.5523 4 20 4Z" stroke="#191919" stroke-width="2" stroke-linecap="round" stroke-linejoin="round"/>
<path d="M7 19H10" stroke="#191919" stroke-width="2" stroke-linecap="round" stroke-linejoin="round"/>
<path d="M17 8V8.01" stroke="#191919" stroke-width="2" stroke-linecap="round" stroke-linejoin="round"/>
<path d="M17 17C17.5523 17 18 16.5523 18 16C18 15.4477 17.5523 15 17 15C16.4477 15 16 15.4477 16 16C16 16.5523 16.4477 17 17 17Z" stroke="#191919" stroke-width="2" stroke-linecap="round" stroke-linejoin="round"/>
<path d="M9 15V19" stroke="#191919" stroke-width="2" stroke-linecap="round" stroke-linejoin="round"/>
</svg>
