<svg width="24" height="24" viewBox="0 0 24 24" fill="none" xmlns="http://www.w3.org/2000/svg">
<path d="M3 3L21 21" stroke="#191919" stroke-width="2" stroke-linecap="round" stroke-linejoin="round"/>
<path d="M16.9998 7.5C16.9998 7.10218 17.1578 6.72064 17.4391 6.43934C17.7204 6.15804 18.102 6 18.4998 6C18.8976 6 19.2792 6.15804 19.5605 6.43934C19.8418 6.72064 19.9998 7.10218 19.9998 7.5V16C19.9998 17.5913 19.3677 19.1174 18.2424 20.2426C17.1172 21.3679 15.5911 22 13.9998 22H11.9998C9.8858 21.708 8.0438 20.603 6.9998 19L4.2998 13.75C4.03458 13.3853 3.9251 12.9302 3.99542 12.4848C4.06575 12.0394 4.31013 11.6402 4.6748 11.375C5.03947 11.1098 5.49457 11.0003 5.93997 11.0706C6.38536 11.1409 6.78458 11.3853 7.0498 11.75L7.9498 13.5M7.9998 13.5V8V13.5ZM8.4398 4.438C8.64969 4.22837 8.91703 4.08568 9.20802 4.02797C9.499 3.97027 9.80056 4.00014 10.0746 4.11381C10.3486 4.22748 10.5827 4.41985 10.7474 4.66658C10.9121 4.91332 10.9999 5.20335 10.9998 5.5V7L8.4398 4.438ZM10.9998 11.008V12V11.008ZM10.9998 5.5V3.5C10.9998 3.30302 11.0386 3.10796 11.114 2.92597C11.1894 2.74399 11.2999 2.57863 11.4391 2.43934C11.5784 2.30005 11.7438 2.18956 11.9258 2.11418C12.1078 2.0388 12.3028 2 12.4998 2C12.6968 2 12.8918 2.0388 13.0738 2.11418C13.2558 2.18956 13.4212 2.30005 13.5605 2.43934C13.6997 2.57863 13.8102 2.74399 13.8856 2.92597C13.961 3.10796 13.9998 3.30302 13.9998 3.5V10L10.9998 5.5ZM13.9998 5.5C13.9998 5.10218 14.1578 4.72064 14.4391 4.43934C14.7204 4.15804 15.102 4 15.4998 4C15.8976 4 16.2792 4.15804 16.5605 4.43934C16.8418 4.72064 16.9998 5.10218 16.9998 5.5V12L13.9998 5.5Z" stroke="#191919" stroke-width="2" stroke-linecap="round" stroke-linejoin="round"/>
</svg>
