<svg width="24" height="24" viewBox="0 0 24 24" fill="none" xmlns="http://www.w3.org/2000/svg">
<path d="M8 13V10.5C8 10.1022 8.15804 9.72064 8.43934 9.43934C8.72064 9.15804 9.10218 9 9.5 9C9.89782 9 10.2794 9.15804 10.5607 9.43934C10.842 9.72064 11 10.1022 11 10.5V12" stroke="#191919" stroke-width="2" stroke-linecap="round" stroke-linejoin="round"/>
<path d="M11 11.5V10.5C11 10.1022 11.158 9.72064 11.4393 9.43934C11.7206 9.15804 12.1022 9 12.5 9C12.8978 9 13.2794 9.15804 13.5607 9.43934C13.842 9.72064 14 10.1022 14 10.5V12" stroke="#191919" stroke-width="2" stroke-linecap="round" stroke-linejoin="round"/>
<path d="M17.0002 12V6.5C17.0002 6.10218 17.1582 5.72064 17.4395 5.43934C17.7208 5.15804 18.1024 5 18.5002 5C18.898 5 19.2795 5.15804 19.5608 5.43934C19.8421 5.72064 20.0002 6.10218 20.0002 6.5V16C20.0002 17.5913 19.368 19.1174 18.2428 20.2426C17.1176 21.3679 15.5915 22 14.0002 22H12.0002H12.2082C11.2145 22.0002 10.2364 21.7535 9.36157 21.2823C8.48676 20.811 7.7427 20.1299 7.19618 19.3C7.13059 19.2002 7.06526 19.1002 7.00018 19C6.68818 18.521 5.59318 16.612 3.71418 13.272C3.52263 12.9315 3.47147 12.5298 3.57157 12.1522C3.67166 11.7745 3.91513 11.4509 4.25018 11.25C4.60706 11.0359 5.02526 10.9471 5.43834 10.9978C5.85143 11.0486 6.23572 11.2359 6.53018 11.53L8.00018 13" stroke="#191919" stroke-width="2" stroke-linecap="round" stroke-linejoin="round"/>
<path d="M14 10.5C14 10.1022 14.158 9.72064 14.4393 9.43934C14.7206 9.15804 15.1022 9 15.5 9C15.8978 9 16.2794 9.15804 16.5607 9.43934C16.842 9.72064 17 10.1022 17 10.5V12" stroke="#191919" stroke-width="2" stroke-linecap="round" stroke-linejoin="round"/>
</svg>
