<svg width="24" height="24" viewBox="0 0 24 24" fill="none" xmlns="http://www.w3.org/2000/svg">
<path d="M3 3L21 21" stroke="#191919" stroke-width="2" stroke-linecap="round" stroke-linejoin="round"/>
<path d="M15.0001 11C15.0001 10.2044 14.684 9.44129 14.1214 8.87868C13.5588 8.31607 12.7957 8 12.0001 8M9.44007 9.435C9.08847 10.0096 8.9405 10.6858 9.01998 11.3548C9.09946 12.0237 9.40177 12.6464 9.87822 13.1226C10.3547 13.5989 10.9775 13.9009 11.6465 13.98C12.3155 14.0592 12.9916 13.9109 13.5661 13.559L9.44007 9.435Z" stroke="#191919" stroke-width="2" stroke-linecap="round" stroke-linejoin="round"/>
<path d="M17.1601 17.156L13.4151 20.9C13.0401 21.2746 12.5317 21.4851 12.0016 21.4851C11.4715 21.4851 10.9631 21.2746 10.5881 20.9L6.34409 16.657C4.93049 15.2436 4.09724 13.3522 4.0084 11.3552C3.91956 9.3582 4.58157 7.40029 5.86409 5.86698M8.04809 4.04198C9.57114 3.17471 11.3368 2.83161 13.0738 3.0654C14.8108 3.29919 16.423 4.09693 17.6625 5.33602C18.9021 6.5751 19.7004 8.18697 19.9348 9.92388C20.1693 11.6608 19.8268 13.4266 18.9601 14.95L8.04809 4.04198Z" stroke="#191919" stroke-width="2" stroke-linecap="round" stroke-linejoin="round"/>
</svg>
