<svg width="24" height="24" viewBox="0 0 24 24" fill="none" xmlns="http://www.w3.org/2000/svg">
<path d="M11.9998 2.99994C12.1318 2.99994 12.2628 2.99994 12.3928 2.99994C11.1081 4.19365 10.2824 5.79979 10.0591 7.53916C9.83577 9.27854 10.229 11.0412 11.1705 12.5207C12.112 14.0002 13.5422 15.103 15.2124 15.6374C16.8826 16.1718 18.6873 16.1041 20.3128 15.4459C19.6875 16.9504 18.6656 18.257 17.356 19.2262C16.0464 20.1954 14.4982 20.791 12.8767 20.9493C11.2552 21.1077 9.62104 20.8229 8.14867 20.1253C6.6763 19.4278 5.42089 18.3436 4.51637 16.9885C3.61185 15.6334 3.09213 14.0582 3.01267 12.4309C2.9332 10.8036 3.29696 9.18524 4.06515 7.74846C4.83334 6.31167 5.97714 5.11037 7.37454 4.27268C8.77195 3.43499 10.3705 2.99234 11.9998 2.99194V2.99994Z" stroke="#191919" stroke-width="2" stroke-linecap="round" stroke-linejoin="round"/>
<path d="M17 4C17 4.53043 17.2107 5.03914 17.5858 5.41421C17.9609 5.78929 18.4696 6 19 6C18.4696 6 17.9609 6.21071 17.5858 6.58579C17.2107 6.96086 17 7.46957 17 8C17 7.46957 16.7893 6.96086 16.4142 6.58579C16.0391 6.21071 15.5304 6 15 6C15.5304 6 16.0391 5.78929 16.4142 5.41421C16.7893 5.03914 17 4.53043 17 4Z" stroke="#191919" stroke-width="2" stroke-linecap="round" stroke-linejoin="round"/>
<path d="M20 10V12M19 11H21H19Z" stroke="#191919" stroke-width="2" stroke-linecap="round" stroke-linejoin="round"/>
</svg>
