<svg width="24" height="24" viewBox="0 0 24 24" fill="none" xmlns="http://www.w3.org/2000/svg">
<path d="M17 3H7C5.89543 3 5 3.89543 5 5V7C5 8.10457 5.89543 9 7 9H17C18.1046 9 19 8.10457 19 7V5C19 3.89543 18.1046 3 17 3Z" stroke="#191919" stroke-width="2" stroke-linecap="round" stroke-linejoin="round"/>
<path d="M19 6H20C20.5304 6 21.0391 6.21071 21.4142 6.58579C21.7893 6.96086 22 7.46957 22 8C22 9.32608 21.4732 10.5979 20.5355 11.5355C19.5979 12.4732 18.3261 13 17 13H12V15" stroke="#191919" stroke-width="2" stroke-linecap="round" stroke-linejoin="round"/>
<path d="M13 15H11C10.4477 15 10 15.4477 10 16V20C10 20.5523 10.4477 21 11 21H13C13.5523 21 14 20.5523 14 20V16C14 15.4477 13.5523 15 13 15Z" stroke="#191919" stroke-width="2" stroke-linecap="round" stroke-linejoin="round"/>
</svg>
