<svg width="24" height="24" viewBox="0 0 24 24" fill="none" xmlns="http://www.w3.org/2000/svg">
<path d="M12 13L10 11" stroke="#191919" stroke-width="2" stroke-linecap="round" stroke-linejoin="round"/>
<path d="M12 12L14 10" stroke="#191919" stroke-width="2" stroke-linecap="round" stroke-linejoin="round"/>
<path d="M12 21V8" stroke="#191919" stroke-width="2" stroke-linecap="round" stroke-linejoin="round"/>
<path d="M9.82411 15.9949C9.38658 15.9693 8.95998 15.8482 8.57431 15.6399C8.18865 15.4317 7.85328 15.1416 7.59181 14.7898C7.33034 14.4381 7.14912 14.0333 7.06089 13.604C6.97265 13.1747 6.97956 12.7313 7.08111 12.3049C6.71819 12.0033 6.43162 11.6202 6.2447 11.1869C6.05778 10.7535 5.9758 10.2822 6.00543 9.81122C6.03505 9.34023 6.17545 8.88288 6.41519 8.47639C6.65494 8.0699 6.98725 7.72575 7.38511 7.47194C7.03648 6.8526 6.91906 6.12959 7.05377 5.43175C7.18848 4.73391 7.56657 4.10656 8.12068 3.66147C8.67478 3.21639 9.3689 2.98248 10.0794 3.00143C10.7898 3.02038 11.4705 3.29095 12.0001 3.76494C12.5298 3.2917 13.2103 3.02177 13.9203 3.00319C14.6304 2.98461 15.324 3.21859 15.8778 3.66347C16.4315 4.10836 16.8094 4.73529 16.9443 5.43269C17.0791 6.13009 16.9621 6.85271 16.6141 7.47194C17.0122 7.72553 17.3448 8.06956 17.5848 8.47601C17.8247 8.88246 17.9653 9.33985 17.995 9.81092C18.0247 10.282 17.9428 10.7534 17.7558 11.1868C17.5689 11.6202 17.2822 12.0033 16.9191 12.3049C17.0241 12.7457 17.0278 13.2046 16.9301 13.647C16.8324 14.0895 16.6357 14.5041 16.3548 14.8596C16.0739 15.2152 15.7161 15.5025 15.3083 15.7C14.9005 15.8975 14.4532 16 14.0001 15.9999H14.0011H10.0011L9.82411 15.9949Z" stroke="#191919" stroke-width="2" stroke-linecap="round" stroke-linejoin="round"/>
</svg>
