<svg width="24" height="24" viewBox="0 0 24 24" fill="none" xmlns="http://www.w3.org/2000/svg">
<path d="M16 5L19 8L17 9L21 13L18 14L22 18H13" stroke="#191919" stroke-width="2" stroke-linecap="round" stroke-linejoin="round"/>
<path d="M15 21V18" stroke="#191919" stroke-width="2" stroke-linecap="round" stroke-linejoin="round"/>
<path d="M8 13L6 11" stroke="#191919" stroke-width="2" stroke-linecap="round" stroke-linejoin="round"/>
<path d="M8 12L10 10" stroke="#191919" stroke-width="2" stroke-linecap="round" stroke-linejoin="round"/>
<path d="M8 21V8" stroke="#191919" stroke-width="2" stroke-linecap="round" stroke-linejoin="round"/>
<path d="M5.82411 15.9949C5.38658 15.9693 4.95998 15.8482 4.57431 15.6399C4.18865 15.4317 3.85328 15.1416 3.59181 14.7898C3.33035 14.4381 3.14912 14.0333 3.06089 13.604C2.97265 13.1747 2.97956 12.7313 3.08111 12.3049C2.71819 12.0033 2.43162 11.6202 2.2447 11.1869C2.05778 10.7535 1.9758 10.2822 2.00543 9.81122C2.03505 9.34023 2.17545 8.88288 2.41519 8.47639C2.65494 8.0699 2.98725 7.72575 3.38511 7.47194C3.03648 6.8526 2.91906 6.12959 3.05377 5.43175C3.18848 4.73391 3.56657 4.10656 4.12068 3.66147C4.67478 3.21639 5.3689 2.98248 6.07938 3.00143C6.78985 3.02038 7.47052 3.29095 8.00011 3.76494C8.52982 3.2917 9.21027 3.02177 9.92034 3.00319C10.6304 2.98461 11.324 3.21859 11.8778 3.66347C12.4315 4.10836 12.8094 4.73529 12.9443 5.43269C13.0791 6.13009 12.9621 6.85271 12.6141 7.47194C13.0122 7.72553 13.3448 8.06956 13.5848 8.47601C13.8247 8.88246 13.9653 9.33985 13.995 9.81092C14.0247 10.282 13.9428 10.7534 13.7558 11.1868C13.5689 11.6202 13.2822 12.0033 12.9191 12.3049C13.0241 12.7457 13.0278 13.2046 12.9301 13.647C12.8324 14.0895 12.6357 14.5041 12.3548 14.8596C12.0739 15.2152 11.7161 15.5025 11.3083 15.7C10.9005 15.8975 10.4532 16 10.0001 15.9999H10.0011H6.00111L5.82411 15.9949Z" stroke="#191919" stroke-width="2" stroke-linecap="round" stroke-linejoin="round"/>
</svg>
