<svg width="24" height="24" viewBox="0 0 24 24" fill="none" xmlns="http://www.w3.org/2000/svg">
<path d="M8.17188 8.16403C8.3615 8.78481 8.69899 9.35028 9.15535 9.81186C9.61171 10.2734 10.1733 10.6173 10.7919 10.814M14.2739 10.291C14.7555 9.95826 15.1582 9.52382 15.4536 9.01838C15.749 8.51295 15.9298 7.94883 15.9834 7.36587C16.0369 6.7829 15.9618 6.19529 15.7634 5.64452C15.565 5.09374 15.2481 4.59323 14.8352 4.17831C14.4222 3.76339 13.9231 3.44418 13.3733 3.24321C12.8235 3.04224 12.2362 2.96441 11.653 3.01521C11.0698 3.06602 10.5048 3.24422 9.99802 3.53724C9.49121 3.83026 9.0549 4.23095 8.71988 4.71103L14.2739 10.291Z" stroke="#191919" stroke-width="2" stroke-linecap="round" stroke-linejoin="round"/>
<path d="M17.832 17.848C17.9439 18.2218 18.0005 18.6099 18 19V21M6 21V19C6 17.9391 6.42143 16.9217 7.17157 16.1716C7.92172 15.4214 8.93913 15 10 15H14C14.3884 14.9997 14.7748 15.0559 15.147 15.167L6 21Z" stroke="#191919" stroke-width="2" stroke-linecap="round" stroke-linejoin="round"/>
<path d="M3 3L21 21" stroke="#191919" stroke-width="2" stroke-linecap="round" stroke-linejoin="round"/>
</svg>
